<svg id="Layer_1" data-name="Layer 1" xmlns="http://www.w3.org/2000/svg" viewBox="0 0 1031.5 532.33"><defs><style>.cls-1{fill:none;stroke:#000;stroke-miterlimit:10;}.cls-2{fill:#fff;}</style></defs><path d="M705.83,679.33c-6.62,0-13.05-1.24-18.58-4.4-20-11.44-24.24-26.66-24.25-37.41-.06-.87-1.55-24.61,17.2-38.42,19-14,56-.21,56.4-.07.19,0,27,4.92,37.77,2,10-2.73,22.19-2.51,26.58,6.26,3.35,6.69,8.91,32,5.19,42.39A6.91,6.91,0,0,1,802.7,654c-3.91,1.74-12.93,2.91-22.48,4.14-12.42,1.61-26.5,3.44-30.39,6.78C744.32,669.6,724.36,679.33,705.83,679.33Zm-2.45-85.52c-8.19,0-16.39,1.53-22.58,6.09C662.24,613.58,664,637.22,664,637.46v0c0,10.49,4.12,25.35,23.75,36.57,20.57,11.76,54.08-3.66,61.42-10,4.13-3.53,17.75-5.3,30.92-7,9.48-1.23,18.43-2.39,22.21-4.07a6,6,0,0,0,2.9-3.71c3.64-10.14-1.85-35-5.15-41.61-4.11-8.22-15.83-8.35-25.42-5.74-11,3-37.18-1.78-38.3-2C736,599.88,719.72,593.81,703.38,593.81Z" transform="translate(-336 -147)"/><path d="M802.71,654l-.42-.9c.13-.06,13-6,18-9,2.24-1.34,2.41-11.57.36-22.32-1.6-8.48-4.09-14.41-6.18-14.76l-20.7-5,.23-1,20.67,5c3.84.64,6.3,12.07,7,15.55,1.5,7.94,2.61,21.3-.83,23.37C815.79,647.91,802.84,653.89,802.71,654Z" transform="translate(-336 -147)"/><path class="cls-1" d="M816,609.94" transform="translate(-336 -147)"/><path d="M817.78,608.92l-.56-.84A20,20,0,0,1,828,605v1A18.92,18.92,0,0,0,817.78,608.92Z" transform="translate(-336 -147)"/><path d="M828,643a15.35,15.35,0,0,1-6.7-1l.4-.92a14.42,14.42,0,0,0,6.3,1c9.45,0,15.35-7.61,17.71-14.73l.95.31C843.5,637.09,836.35,643,828,643Z" transform="translate(-336 -147)"/><path class="cls-1" d="M998.5,580.5" transform="translate(-336 -147)"/><path d="M829.27,606.14h-.12A17,17,0,0,0,827,606v-1a18.92,18.92,0,0,1,2.14.12L985.32,546l.36.94Z" transform="translate(-336 -147)"/><path class="cls-1" d="M846,619.49" transform="translate(-336 -147)"/><path class="cls-1" d="M846.18,627.42" transform="translate(-336 -147)"/><path class="cls-1" d="M814.92,637.08" transform="translate(-336 -147)"/><path class="cls-1" d="M814.92,637.08" transform="translate(-336 -147)"/><path class="cls-1" d="M812.21,633.64" transform="translate(-336 -147)"/><path class="cls-1" d="M809.5,624" transform="translate(-336 -147)"/><path class="cls-1" d="M816,609.94" transform="translate(-336 -147)"/><path d="M678.57,669l-.14-1c10.51-1.43,17.57-12.49,17.57-27.5S686.13,613,674,613a11.62,11.62,0,0,0-5.32,1l-.36-.92a12.5,12.5,0,0,1,5.68-1c12.68,0,23,12.79,23,28.5C697,656,689.59,667.49,678.57,669Z" transform="translate(-336 -147)"/><path d="M1019.5,585c-7.75,0-13.74-.29-20.25-4.07l.5-.86c5.77,3.34,11,3.93,19.75,3.93,20.13,0,36.5-12.79,36.5-28.5s-16.37-28.5-36.5-28.5c-16.86,0-29.4,7.35-33.53,19.66l-.94-.32C989.3,533.6,1002.19,526,1019.5,526c20.68,0,37.5,13.23,37.5,29.5S1040.18,585,1019.5,585Z" transform="translate(-336 -147)"/><rect x="1077.46" y="543.39" width="1" height="75.15" transform="translate(117.37 1487.24) rotate(-87.65)"/><rect x="1035.16" y="522.46" width="76.89" height="1" transform="translate(-408.56 40.66) rotate(-9.66)"/><path d="M1116,583h-1.11v-1h.11c19.3,0,35-14.58,35-32.5s-15.7-32.5-35-32.5c-1.24,0-2.49.06-3.71.18l-1.85.19,1.77-1.28.06.09c1.23-.12,2.48-.18,3.73-.18,19.85,0,36,15,36,33.5,0,18.16-15.61,33-35,33.49Z" transform="translate(-336 -147)"/><path d="M1131.5,599c-13,0-25.42-6.14-34.06-16.84l.78-.63C1106.66,592,1118.79,598,1131.5,598c24.54,0,44.5-22,44.5-49s-20-49-44.5-49c-13.73,0-26.92,7.16-35.28,19.14l-.82-.57c8.55-12.25,22-19.57,36.1-19.57,25.09,0,45.5,22.43,45.5,50S1156.59,599,1131.5,599Z" transform="translate(-336 -147)"/><path class="cls-1" d="M1097.74,520.49" transform="translate(-336 -147)"/><path d="M1234.87,657.43c-28.85,0-69.16-4.7-106.4-27.36h0c-9.4,4.21-18.25,5.93-30.46,5.93-35.51,0-65.31-22.85-67.83-52l1-.09C1033.65,612.55,1063,635,1098,635c12.17,0,21-1.73,30.29-6l.25-.1.15.09,62.75-8c.15,0,20.66-5.1,23.57-20.59l.82-4.38c3.31-17.71,8.86-47.37,12.36-62.33a19.77,19.77,0,0,1,10.47-13.27c7-3.64,15.69-3.73,19-2.39,5.53,2.21,25.65,68.46,26.3,72.38.89,5.33,5,44.91,4,50.18,0,.15-3.2,14.4-13.49,14.4-1.27,0-3.6.24-6.83.56A310.21,310.21,0,0,1,1234.87,657.43Zm-104.8-27.57c55.26,33.07,117.08,26.79,137.5,24.71,3.26-.33,5.61-.57,6.93-.57,9.48,0,12.48-13.47,12.51-13.6,1-4.91-3-44.09-4-49.82-1.09-6.54-21.18-69.81-25.7-71.62-2.61-1-10.89-1.44-18.19,2.36a18.48,18.48,0,0,0-9.95,12.61c-3.5,14.94-9.05,44.58-12.36,62.29l-.82,4.37c-3,16.13-24.16,21.35-24.37,21.4Z" transform="translate(-336 -147)"/><path d="M1065.93,524.76l-.86-.52c21.38-35.28,60.6-39.95,63.25-40.22l27.12-19.09,38.2,16.09,51.2,9,14.82,30.22-.9.44L1244.16,491l-50.85-9-37.75-15.89L1128.68,485h-.14C1128.14,485,1087.67,488.87,1065.93,524.76Z" transform="translate(-336 -147)"/><path d="M951.14,559.84l-16-17c-.29-.42-22.22-35.86,11.79-77.66l.27-.32.36.2c.45.25,45.28,25,55,29.49,9.89,4.54,17.17,30.71,17.47,31.82l-1,.26c-.08-.27-7.46-26.82-16.93-31.18-9.24-4.24-50.31-26.91-54.65-29.31-33.16,41.08-11.74,75.74-11.52,76.09l15.94,16.93Z" transform="translate(-336 -147)"/><path d="M1148.82,470.27c-.12-.14-12-13.39-42.41-19.28-2.83-.55-8.38-2.1-14.8-3.9-3.57-1-7.42-2.08-11.24-3.11-13.48-3.63-26.86-7-27-7-14.42-4.16-52.67-14.43-56.62-12.06l-.52-.86c5-3,52,10.41,57.4,11.95.11,0,13.5,3.36,27,7,3.82,1,7.67,2.11,11.25,3.11,6.4,1.79,11.93,3.34,14.71,3.88,30.82,6,42.86,19.46,43,19.6Z" transform="translate(-336 -147)"/><path d="M947,465.85l-8.84-9a2.71,2.71,0,0,1-.59-2.84c.65-1.73,2.33-8.34,2.58-9.64l-.08,0c.11-.34.19-.6.51-.66l.48.18a1,1,0,0,1,0,.56h0l0,0a102.17,102.17,0,0,1-2.58,9.91,1.7,1.7,0,0,0,.38,1.78l8.84,9Z" transform="translate(-336 -147)"/><path d="M944.78,444.73c-3.24,0-5.24-.16-5.32-.17l.08-1c.4,0,39.51,3.11,56.29-19a.74.74,0,0,1,1.3.21l-1,.3a.3.3,0,0,0,.22.19.26.26,0,0,0,.24-.1C983.29,442.75,956.24,444.73,944.78,444.73Z" transform="translate(-336 -147)"/><path d="M939.32,444.53c-1.17-.45-28.72-11.29-24.72-28.66a6.87,6.87,0,0,1,1.4-2.82c2.37-2.86,15-12.85,27.22-21l15.86-8.52c.25-.1,4.67-1.58,9.83,5.65.82,1,8.12,10.28,7.06,13.45a10.51,10.51,0,0,1-3,4.28.24.24,0,0,0-.07.24.23.23,0,0,0,.18.17c3.91.92,13.28,3.32,15.75,5.8,0,0,2.66,2.33,5.08,4.85,4.61,4.78,4.53,6.16,4,6.83l-.76-.66s.6-.79-3.9-5.47c-2.4-2.49-5-4.8-5.05-4.82-2.38-2.38-12.31-4.85-15.3-5.56a1.24,1.24,0,0,1-.92-.89,1.26,1.26,0,0,1,.37-1.23,9.6,9.6,0,0,0,2.71-3.86c.66-2-3.89-8.74-6.92-12.53-4.7-6.57-8.59-5.35-8.63-5.34l-15.74,8.47c-11.74,7.83-24.66,18-27,20.75a5.73,5.73,0,0,0-1.2,2.4c-3.8,16.53,23.83,27.4,24.11,27.51Z" transform="translate(-336 -147)"/><path d="M1141,462.72l-.9-.44a52.14,52.14,0,0,0,5-21.78c0-18.66-11.26-36.31-31.7-49.69S1065.69,370,1037,370c-26.6,0-50.9,5.86-70.25,16.93l-.5-.86c19.51-11.17,44-17.07,70.75-17.07,28.88,0,56.17,7.45,76.84,21S1146,421.49,1146,440.5A53.3,53.3,0,0,1,1141,462.72Z" transform="translate(-336 -147)"/><path d="M1136,460.72l-.9-.44a44,44,0,0,0,4.45-19.39c0-17-10.62-33.15-29.91-45.37s-44.94-19-72-19c-24,0-47.69,5.84-66.82,16.44l-.48-.88c19.27-10.68,43.18-16.56,67.3-16.56,27.27,0,53,6.81,72.56,19.17s30.38,28.83,30.38,46.22A44.91,44.91,0,0,1,1136,460.72Z" transform="translate(-336 -147)"/><path d="M1025.08,617.45c-41.48,0-61.74-25.35-62-25.64l.78-.62c.27.34,26.86,33.56,81.71,23.28l.19,1A113,113,0,0,1,1025.08,617.45Z" transform="translate(-336 -147)"/><path class="cls-1" d="M918.5,429.5" transform="translate(-336 -147)"/><path class="cls-1" d="M903.5,446.5" transform="translate(-336 -147)"/><path d="M988.54,539.48c-4.49-15.23,15.2-41.84,16-43l.8.6c-.21.27-20.23,27.33-15.88,42.08Z" transform="translate(-336 -147)"/><path class="cls-1" d="M939.5,485" transform="translate(-336 -147)"/><path d="M935.57,542.85a50.85,50.85,0,0,1-34.5-17.73A55.29,55.29,0,0,1,888,484.46c1.51-19.59,13.85-40.6,31.44-53.52l.59.81c-17.36,12.75-29.54,33.47-31,52.79a54.28,54.28,0,0,0,12.83,39.93,49.9,49.9,0,0,0,33.81,17.39Z" transform="translate(-336 -147)"/><rect x="842.67" y="603.46" width="160.34" height="1" transform="translate(-472.37 149.58) rotate(-17.02)"/><path class="cls-2" d="M911.38,482.6c-6.44,0-6.45,10,0,10S917.82,482.6,911.38,482.6Z" transform="translate(-336 -147)"/><path d="M1244,490.71l-57.15-127.22a33.1,33.1,0,0,1-1.66-22.5l17.33-61.36a19.12,19.12,0,0,1,16.58-13.78l24.86-2.26a1.51,1.51,0,0,0,.6-2.82l-22.34-12.48a34.09,34.09,0,0,0-12.65-4.1L1089,230v5.13a4.51,4.51,0,0,0,2.78,4.17L1131.84,256a16.45,16.45,0,0,1,9.4,19.83c-9.26,31.9-6.69,66.09-5.15,79.31a36.57,36.57,0,0,0,1.73,7.67c26.1,76.23,23.75,96.39,20,101.62a3.17,3.17,0,0,1-2.36,1.61v-1s.8-.06,1.63-1.3c2.83-4.2,6.52-22.42-20.23-100.57a38.26,38.26,0,0,1-1.8-7.91c-1.54-13.28-4.12-47.63,5.19-79.71a15.44,15.44,0,0,0-8.83-18.62l-41.16-17.1a3.74,3.74,0,0,1-2.29-3.44v-7.46l121.73,14.31a34.86,34.86,0,0,1,13,4.22l22.33,12.48a2.48,2.48,0,0,1,1.2,2.85,2.61,2.61,0,0,1-2.3,1.85l-24.75,2.24a18.14,18.14,0,0,0-15.71,13.06l-17.33,61.36a32,32,0,0,0,1.61,21.81L1245,490.29Z" transform="translate(-336 -147)"/><path d="M921.91,539.13c-2.27,0-13.7-10.34-20.75-25.86-5.54-12.2-7.07-24.33-4.55-36.07,3.21-15,13.08-28.9,29.31-41.3l.16.2c-36.63,28-33.65,57.34-24.69,77.07a76.66,76.66,0,0,0,12.32,18.94c3.82,4.26,7.14,6.78,8.17,6.78h.1l0,.24Z" transform="translate(-336 -147)"/><path d="M928,541.12c-1.44-.16-5-3.17-8.86-8.6a71.69,71.69,0,0,1-10.39-21.45,58.31,58.31,0,0,1-.2-33c3.87-13.21,12.66-25.41,26.13-36.24l.16.19c-30.69,24.69-31,51.16-25.85,69,5,17.37,16.26,29.55,19,29.88Z" transform="translate(-336 -147)"/><path d="M932.9,542.07l-.36-.49c-2.89-4-11.68-16.12-14.73-32a52.65,52.65,0,0,1,1.27-25.9c3.12-10,9.46-19.35,18.84-27.82l.16.18c-35.33,31.92-18.51,67.17-5.34,85.34l.36.5Z" transform="translate(-336 -147)"/><path d="M1366.5,282.78,1244,264.58l.15-1,121.38,18,1-112.46c-10.53-.58-187.24-10.07-230.2,3.6-43.82,14-47.27,56.3-47.3,56.73l-1-.07c0-.43,3.54-43.46,48-57.61,44.23-14.08,229.16-3.73,231-3.62l.47,0v.48Z" transform="translate(-336 -147)"/><path d="M1112.58,251.93c-10.08,0-20.29-3.34-26-5.61a12.34,12.34,0,0,1-5.92-4.92C1076,234,1076,226.54,1076,216.24V214c0-26.47,17.5-48,39-48a33.69,33.69,0,0,1,19.8,6.64l-.59.81A32.65,32.65,0,0,0,1115,167c-21,0-38,21.08-38,47v2.24c0,10.14,0,17.46,4.46,24.63a11.44,11.44,0,0,0,5.44,4.52c5.5,2.16,19.57,7,31.59,5.11l.15,1A39.31,39.31,0,0,1,1112.58,251.93Z" transform="translate(-336 -147)"/><path d="M1093.46,248.73l-30.88-5.9A42.8,42.8,0,0,1,1039,204.5c0-23.15,18.39-42.22,41-42.5l37,4.07-.11,1L1080,163c-22,.28-40,18.89-40,41.5a41.8,41.8,0,0,0,23,37.4l30.68,5.84Z" transform="translate(-336 -147)"/><path d="M1043.34,243.85l-.13-.07C1028.05,234.84,1019,220,1019,204c0-20.85,15.94-39.7,38.76-45.86l.09,0,19.24,2.24a4.54,4.54,0,0,1,2.38,1l.86.72-.65.76-1.66-1.4-20.09-2.35c-22.34,6.06-37.93,24.5-37.93,44.87,0,15.57,8.82,30.08,23.59,38.84l18.89-.84,0,1Z" transform="translate(-336 -147)"/><path d="M1043.4,243.84,955,232.38A41.3,41.3,0,0,1,943.5,234c-23.43,0-42.5-19.51-42.5-43.5S920.07,147,943.5,147a41.41,41.41,0,0,1,13.72,2.33l100.71,8.79-.09,1L957,150.31l-.06,0A40.57,40.57,0,0,0,943.5,148c-22.88,0-41.5,19.07-41.5,42.5S920.62,233,943.5,233a40.52,40.52,0,0,0,11.31-1.61l.1,0,.1,0,88.52,11.47Z" transform="translate(-336 -147)"/><polygon points="565.46 54.48 48 12.08 48 4.98 48.52 5 567.52 29.98 567.48 30.98 49 6.03 49 11.16 565.54 53.49 565.46 54.48"/><path d="M356.5,221c-11.3,0-20.5-8.52-20.5-19,0-7.66,4.92-14.53,12.53-17.51a21.77,21.77,0,0,1,8-1.49c11.3,0,20.5,8.52,20.5,19S367.8,221,356.5,221Zm0-37a20.76,20.76,0,0,0-7.6,1.42c-7.23,2.83-11.9,9.34-11.9,16.58,0,9.93,8.75,18,19.5,18s19.5-8.07,19.5-18S367.25,184,356.5,184Z" transform="translate(-336 -147)"/><polygon points="35 41.79 34 41.79 34 13.81 11.58 38.95 10.84 38.29 35 11.19 35 41.79"/><polygon points="48.49 12.12 28.18 11.77 28.18 5 48.5 5 48.5 6 29.18 6 29.18 10.79 48.51 11.12 48.49 12.12"/></svg>