<svg xmlns="http://www.w3.org/2000/svg" xmlns:xlink="http://www.w3.org/1999/xlink" viewBox="0 0 933.16 561.5"><defs><style>.cls-1,.cls-4,.cls-6{fill:none;}.cls-2{fill:url(#linear-gradient);}.cls-3{fill:#fff;}.cls-4{stroke:#fff;stroke-width:4px;}.cls-4,.cls-6{stroke-miterlimit:10;}.cls-5{clip-path:url(#clip-path);}.cls-6{stroke:#000;stroke-width:1.16px;}</style><linearGradient id="linear-gradient" x1="710" y1="16.74" x2="710" y2="457.87" gradientUnits="userSpaceOnUse"><stop offset="0" stop-color="#fff"/><stop offset="0" stop-color="#cecdcd"/><stop offset="0" stop-color="#cccbc2"/><stop offset="0.02" stop-color="#f9966b"/><stop offset="1" stop-color="#ff5b00"/></linearGradient><clipPath id="clip-path" transform="translate(-219.84 -104.5)"><rect class="cls-1" x="-39" y="47" width="1436.31" height="976.68"/></clipPath></defs><g id="Layer_1" data-name="Layer 1"><path class="cls-2" d="M710,403.5,295.5,402.19C296.5,238.66,483.3,104.5,710,104.5c227.39,0,414.5,135,414.5,299Z" transform="translate(-219.84 -104.5)"/><path class="cls-3" d="M565.22,297.93l-4.43,2.64,1,3.7c0,2.08-2,3.11-6.1,3.11l-1.91,5.15-8.14,5.38a42.12,42.12,0,0,1-4.66,6,12.08,12.08,0,0,0-7.36,2.93c-2.51,2-4.19,3.23-5,3.83a20.26,20.26,0,0,1-2.81,1.68,18.15,18.15,0,0,1-3.17,1.25,25.37,25.37,0,0,0-4.54,2.1,20.26,20.26,0,0,1-3.59,1.73,11,11,0,0,1-1.86.12H511q-4.54,0-11.73,5.62l-3.7-.71-3,.95a16.1,16.1,0,0,1-4.31,1.08,13.55,13.55,0,0,1-3.53-.54,13,13,0,0,0-2.57-.54h-.48a5.1,5.1,0,0,1-3,1.32,3.87,3.87,0,0,1-2.63-1.56l-4.19-.48a5.73,5.73,0,0,0-2.51.72l-3.35-1.19-2.28.95-4.9-2.15-2.15-1.67a27.36,27.36,0,0,0-5.63-2.28l-1.31-3.11q-5.86-1.54-6.34-1.73c-.32-.12-.66-1.1-1-2.93a5.67,5.67,0,0,0-1.91-3.71,8,8,0,0,1-2.22-2.28,17,17,0,0,1-1.61-3.58,21,21,0,0,0-1.86-4.07,21.12,21.12,0,0,1-2.33-4.73,14.09,14.09,0,0,1-.78-4.48v-.72l.48-7.54a10.76,10.76,0,0,1-1.43-5.14l1.43-4.19v-4.19l1.44-.71.48-3.95,3-11.25,2.15-5.38,1.08-.24.48-3.71c.79-.24,1.35-1.65,1.67-4.24a11.35,11.35,0,0,1,2.93-6.52c1.64-1.76,2.45-3.15,2.45-4.19a5.39,5.39,0,0,0-.95-3.23l2.87-1a21.6,21.6,0,0,1,4.66-5.14l1.32-5.15,3.11-1.91,1-3.95q5.15-1.08,7.06-4.24a7.37,7.37,0,0,1,4.78-3.77l1.56-1.56c.39-.48,2.07-1.19,5-2.15l.72.48,2.75-2.75,1.67,2,2.4.48a21.59,21.59,0,0,1,7.89-1.44l4.91.84c.24.08.83.36,1.79.84l7.66,2.87,17.22,10.88a10.09,10.09,0,0,0,3.47,5.15l1.44,4.66c1.51,3.67,2.27,6.19,2.27,7.54l-.24,5.38a22.12,22.12,0,0,0-.6,5.15q0,.24.36.48c0,.48-.54,1.33-1.61,2.57s-1.86,2.17-2.33,2.81l-4.43,1-1.56-1.2a4.18,4.18,0,0,1-1.19-1.2l-.72-1.31a5,5,0,0,1-.78-2c-.2-1-.42-1.87-.66-2.75v-3.71l-.71-4.18v-5.86l.95-4.43q-4.54-8-11.6-9.69-1.44-.36-1.44-.84v-.24c-.08-.31-.44-.63-1.07-.95a2.79,2.79,0,0,1-1.32-1.2h-5.14L494.88,219c-2.39,0-3.59.48-3.59,1.43L489,219l-2.4,1.67-3.23-.48L481,222a13.43,13.43,0,0,0-3-.24,10.51,10.51,0,0,0-3.71.72l-3.95,5.62-6.58,6.58-5.14,7.9-2.15.95-2,6.34-3.35,2.75v3.35l-4.18,7.18-2,8H443.2l1,4.66-2.4,4.67.72,1.67h-1.43v3.71l-1,.72.24,9.57-1.08,7.18c1.92,2.79,2.83,4.9,2.75,6.34l2.16,1.67v3L446,317l-1.08,2.76,4.67,4.9.24,2.39,7.65,3-.71,3.11,10,.84,3.11,3.11,5.14-1.67,2.75,3.23,5.62-2a6,6,0,0,1,3.23-1.67.64.64,0,0,1,.72.72l3.59-.24,2,1.67,4-1.43h1.2q3.7,0,5.2-1.86c1-1.23,2.69-1.85,5.09-1.85a20.19,20.19,0,0,1,3.47.48c.39-1.76,2.11-2.71,5.14-2.87q1.8-2.16,6.1-3.47,1.8,0,7.06-2.4l1.79-3a61.15,61.15,0,0,0,6.82-3l2.63-3.35,4.19-1.79,13-13.64,4.43-2.51Z" transform="translate(-219.84 -104.5)"/><path class="cls-3" d="M776.61,297.93l-4.43,2.64,1,3.7c0,2.08-2,3.11-6.1,3.11l-1.92,5.15L757,317.91a41.44,41.44,0,0,1-4.67,6,12.12,12.12,0,0,0-7.36,2.93c-2.51,2-4.18,3.23-5,3.83a21.52,21.52,0,0,1-2.81,1.68,18.79,18.79,0,0,1-3.17,1.25,25.08,25.08,0,0,0-4.55,2.1,19.91,19.91,0,0,1-3.59,1.73,11,11,0,0,1-1.85.12h-1.56q-4.54,0-11.72,5.62l-3.71-.71-3,.95a16,16,0,0,1-4.31,1.08,13.61,13.61,0,0,1-3.53-.54,12.9,12.9,0,0,0-2.57-.54h-.48a5.05,5.05,0,0,1-3,1.32,3.91,3.91,0,0,1-2.63-1.56l-4.19-.48a5.8,5.8,0,0,0-2.51.72l-3.35-1.19-2.27.95L670.25,341l-2.15-1.67a27.16,27.16,0,0,0-5.62-2.28l-1.32-3.11q-5.86-1.54-6.34-1.73c-.32-.12-.65-1.1-1-2.93a5.63,5.63,0,0,0-1.92-3.71,8,8,0,0,1-2.21-2.28,17,17,0,0,1-1.62-3.58,20.94,20.94,0,0,0-1.85-4.07,20.3,20.3,0,0,1-2.33-4.73,14.09,14.09,0,0,1-.78-4.48v-.72l.48-7.54a10.67,10.67,0,0,1-1.44-5.14l1.44-4.19v-4.19l1.43-.71.48-3.95,3-11.25,2.16-5.38,1.07-.24.48-3.71c.8-.24,1.36-1.65,1.68-4.24a11.22,11.22,0,0,1,2.93-6.52c1.63-1.76,2.45-3.15,2.45-4.19a5.33,5.33,0,0,0-1-3.23l2.87-1a21.62,21.62,0,0,1,4.67-5.14l1.31-5.15,3.11-1.91,1-3.95q5.14-1.08,7.06-4.24a7.37,7.37,0,0,1,4.78-3.77l1.56-1.56c.4-.48,2.07-1.19,5-2.15l.72.48,2.75-2.75,1.68,2,2.39.48a21.6,21.6,0,0,1,7.9-1.44l4.9.84q.36.12,1.8.84l7.65,2.87,17.23,10.88a10,10,0,0,0,3.47,5.15l1.43,4.66c1.52,3.67,2.28,6.19,2.28,7.54l-.24,5.38a22.12,22.12,0,0,0-.6,5.15q0,.24.36.48c0,.48-.54,1.33-1.62,2.57s-1.85,2.17-2.33,2.81l-4.43,1-1.55-1.2a4.12,4.12,0,0,1-1.2-1.2l-.72-1.31a5.18,5.18,0,0,1-.77-2c-.2-1-.42-1.87-.66-2.75v-3.71l-.72-4.18v-5.86l1-4.43q-4.54-8-11.6-9.69-1.44-.36-1.44-.84v-.24c-.08-.31-.44-.63-1.08-.95a2.77,2.77,0,0,1-1.31-1.2h-5.15L706.26,219c-2.39,0-3.59.48-3.59,1.43L700.4,219,698,220.65l-3.23-.48-2.39,1.8a13.49,13.49,0,0,0-3-.24,10.47,10.47,0,0,0-3.71.72l-4,5.62-6.58,6.58-5.14,7.9-2.16.95-2,6.34-3.35,2.75v3.35l-4.19,7.18-2,8h-1.68l1,4.66-2.39,4.67.72,1.67h-1.44v3.71l-1,.72.24,9.57-1.07,7.18q2.86,4.19,2.75,6.34l2.15,1.67v3l1.79,2.63-1.07,2.76,4.66,4.9.24,2.39,7.66,3-.72,3.11,10,.84,3.11,3.11,5.14-1.67,2.76,3.23,5.62-2A5.9,5.9,0,0,1,698,334.9a.64.64,0,0,1,.72.72l3.59-.24,2,1.67,3.95-1.43h1.19q3.71,0,5.21-1.86c1-1.23,2.69-1.85,5.08-1.85a20.07,20.07,0,0,1,3.47.48c.4-1.76,2.11-2.71,5.14-2.87,1.2-1.44,3.23-2.6,6.11-3.47q1.79,0,7-2.4l1.8-3a62,62,0,0,0,6.82-3l2.63-3.35,4.19-1.79,13-13.64,4.42-2.51Z" transform="translate(-219.84 -104.5)"/><path class="cls-3" d="M1027.94,324.61a14.06,14.06,0,0,1,1,3.35c0,.72-.74,1.66-2.21,2.81s-3.17,2.53-5.09,4.13l-2.75-1-3.23,4.91a18.25,18.25,0,0,0-7.53,2.15l-7.06-1.67L997.08,341l-1.2,2.15q-3.46-2.62-4.42-2.63-.48,0-.48.72l-1.32-.24-2.15,2.15-2.15-2.63-1.8.72a6.27,6.27,0,0,0-3.95-1.68h-7.77l-2.27-2.51-2.64.48L963,335.38l-2.4,1.19-1.79-2.87h-3.59L952.94,331h-2.87c-.24,0-.74-.6-1.5-1.79a9.51,9.51,0,0,0-3.41-3.11l-7.41-3.95q-6.46-3.11-10-10.77h-2.87l-4-4.9-7.18-5.63-8-9.33-2.27-.71-3.71-3.95q-.6-.72-5-2.16a6.2,6.2,0,0,1-3,1,4.21,4.21,0,0,1-2.4-1v.24c0,.16-.16.24-.47.24H886.3l-2.39-3.47c.88-1,1.44-2.59,1.68-4.9l3-1v-1.43l3.11-.72a4.93,4.93,0,0,1,3-1.2,4.19,4.19,0,0,1,2,.6,4.68,4.68,0,0,0,1.32.6q.36,0,.84-.72,1.07,4.43,10.28,4.43,8,0,12.44-1.56v-.72l18.43-.71a29,29,0,0,1,13.4-3.23l1.55.48,4.07-1.44,1.08-1.44L963,269l3.7-1.43h2.64a4.54,4.54,0,0,0,2.51-.42,2.53,2.53,0,0,0,.48-1.86v-.95c2-.24,3-.56,3-1,6.14-1.59,9.21-4.31,9.21-8.13a7.71,7.71,0,0,0-2.63-5.39l-8.14-7.77h-1.91c-3.75-2.32-6.14-3.47-7.18-3.47h-2.39l-4.91-2.16h-3l-3.11-2.51h-5.62l-2.27-1L930,232l-2.27-1.32-1.44.84-2.75-.84-2.63.84-7.18-.84L906.4,232l-3.95-1.32-4.42.48-3.83-.48-3,1.32-2.15-.84-4.43,2.75-3.47-.48a29.11,29.11,0,0,1-3.71,6.1L879,243l-.72,14.24,1.67,12.2c-1.75,5.67-2.67,9.17-2.75,10.53l-1.67,31.34,1.91,17.95L876,338.85v2.39q0,1.9-4.67,1.91h-1l1.2-9.45-1.2-3.71-2.15-10,1.44-1q-3-3.71-3-4.91c0-1.51.92-3.15,2.76-4.9l-2-3.95h-.24q-.48,0-.48-.24c0-.87,1-3.15,3-6.82a6.53,6.53,0,0,1-1.68-4.66l.72-3.95v-1.91a11.64,11.64,0,0,0,1.67-5.15,14,14,0,0,0-1.67-5.74l1.67-4.07-.71-3.71,1.43-1.19a4.44,4.44,0,0,1-.72-2.52,18.14,18.14,0,0,1,1.68-5.86l-2.39.48-1.44-6.58,1.2-4.66-1.2-10.05,1.2-1.2q-3.84-3.94-5.86-4h-.72l-1.8,1.68-5.62-.48-3.71,4.67a10.4,10.4,0,0,0-4.66-2.4c-1.28-1.67-1.92-3-1.92-3.94a5.41,5.41,0,0,1,.54-2.34,5.77,5.77,0,0,1,1.85-2.09l3.23-2.15,7.42-.84,10-.48,2.15-1.68v-.71q0-3.7,5.63-3.71h3c.87,3.43,2.35,5.14,4.42,5.14q.72,0,5.15-2.15l6.1,1.43,9.57-1.43,12.68,1.43,17.94.48,9,1.68h6.93l2.64,2.27c.24-1,.75-1.43,1.55-1.43a3.86,3.86,0,0,1,2.39,1.43,4.42,4.42,0,0,0,1,2.87l2.51.48v-3.11l9.81,4,3.35,2.63.48-.72a15.07,15.07,0,0,0,6.46,1.68l1.68,2,2.15.48q3.94,6.1,6,9.09a9.77,9.77,0,0,1,2.09,5.38,10.11,10.11,0,0,1-3.77,7.78,97.1,97.1,0,0,0-8.19,8.37l-2.51.12-1.92.12a16.85,16.85,0,0,0-4.18,1.68l-1,2h-6.94l-1.91,1.68a6.48,6.48,0,0,1-2.27,1.07l-3.59,1.08a14.68,14.68,0,0,0-11,5.14L941.69,279l-3.47,1.68a3.56,3.56,0,0,0-1.91-.72c-1,0-2.2.72-3.71,2.15l-3.35-1.43L926,282.14l-1.19-1.43-4.43,2.51-5.86-.72a15.18,15.18,0,0,0-3.71.48l2.39,3.35,6,5.14,1.68,3,9.57,7.3,2.15,3.95,1.56,1.79c.47.48,1.51,2.68,3.11,6.58l6.58.24,7.41,7.54,4,1.79,5.38,3.35,5.15,1.56,7.3,2.87,2.75-.48,1.19,1,.48-.48,1,1.67,3.47-.71.72,2.51,2.75-1.8,2.87.84,8.37-.84,3.35.84,11.84-2,8.74-2.39.6,1.43,1.67-3h3.71Z" transform="translate(-219.84 -104.5)"/><path class="cls-3" d="M339.26,507l-1.67,1.7.36,2.38c0,1.34-.77,2-2.3,2l-.72,3.31-3.07,3.46a29.5,29.5,0,0,1-1.76,3.85c-.91,0-1.83.63-2.78,1.89s-1.58,2.08-1.9,2.46a8.3,8.3,0,0,1-1.06,1.08,6.6,6.6,0,0,1-1.19.81,8.34,8.34,0,0,0-1.72,1.34,6.86,6.86,0,0,1-1.35,1.12,2.54,2.54,0,0,1-.7.08h-.59c-1.15,0-2.62,1.2-4.43,3.61l-1.4-.46-1.12.62a4.22,4.22,0,0,1-1.63.69,3.25,3.25,0,0,1-1.33-.35,3.19,3.19,0,0,0-1-.34h-.18c-.42.56-.8.84-1.13.84s-.63-.33-1-1l-1.58-.3a1.54,1.54,0,0,0-.95.46l-1.27-.77-.86.61-1.85-1.38-.81-1.08a8.85,8.85,0,0,0-2.12-1.46l-.5-2c-1.47-.67-2.27-1-2.39-1.12a4.9,4.9,0,0,1-.38-1.88,4.78,4.78,0,0,0-.73-2.39,5.05,5.05,0,0,1-.83-1.46,15.46,15.46,0,0,1-.61-2.31,20.09,20.09,0,0,0-.7-2.62,17.93,17.93,0,0,1-.88-3,14.69,14.69,0,0,1-.3-2.88V512l.19-4.84a10.63,10.63,0,0,1-.55-3.31l.55-2.7v-2.69l.54-.46.18-2.54,1.13-7.24.81-3.46.41-.15.18-2.39q.45-.22.63-2.73a10.35,10.35,0,0,1,1.1-4.2,6.07,6.07,0,0,0,.93-2.69,5.35,5.35,0,0,0-.36-2.08l1.08-.61a13.78,13.78,0,0,1,1.76-3.31l.5-3.31,1.17-1.23.36-2.54a4.23,4.23,0,0,0,2.67-2.73q.72-2,1.8-2.43l.59-1a5.16,5.16,0,0,1,1.9-1.38l.27.3,1-1.77.63,1.31.9.31a5.28,5.28,0,0,1,3-.92l1.85.53c.09.06.32.24.68.54l2.89,1.85,6.5,7a7.65,7.65,0,0,0,1.31,3.31l.54,3a25.39,25.39,0,0,1,.86,4.85l-.09,3.47a23.89,23.89,0,0,0-.23,3.31.46.46,0,0,0,.14.3,4.56,4.56,0,0,1-.61,1.66c-.41.79-.7,1.4-.88,1.81l-1.67.61-.59-.77a2.49,2.49,0,0,1-.45-.77l-.27-.84a4.68,4.68,0,0,1-.29-1.31c-.08-.62-.16-1.21-.25-1.77v-2.39l-.27-2.69v-3.77l.36-2.85c-1.15-3.44-2.6-5.52-4.38-6.23q-.54-.24-.54-.54v-.16a1.05,1.05,0,0,0-.41-.61,1.59,1.59,0,0,1-.5-.77H314l-1.31-1.77c-.9,0-1.35.31-1.35.92l-.86-.92-.9,1.08-1.22-.31-.9,1.15a3.15,3.15,0,0,0-1.13-.15,2.58,2.58,0,0,0-1.4.46L303.46,462,301,466.27,299,471.35l-.81.62-.77,4.07-1.26,1.77V480l-1.58,4.62-.77,5.15h-.63l.36,3-.9,3,.27,1.07h-.54v2.39l-.36.46.09,6.16-.41,4.62a11.22,11.22,0,0,1,1,4.07l.81,1.08v1.93l.68,1.69-.41,1.77,1.76,3.15.09,1.54,2.89,1.93-.27,2,3.79.54,1.18,2,1.94-1.08,1,2.08,2.12-1.31c.51-.72.92-1.08,1.22-1.08s.27.16.27.46l1.35-.15.77,1.08,1.49-.93h.45a2,2,0,0,0,2-1.19,2,2,0,0,1,1.92-1.19,4.6,4.6,0,0,1,1.31.31,1.94,1.94,0,0,1,1.94-1.85,5,5,0,0,1,2.3-2.23,6.48,6.48,0,0,0,2.66-1.54l.68-1.93a19.49,19.49,0,0,0,2.57-1.92l1-2.15,1.58-1.16,4.92-8.77,1.67-1.62Z" transform="translate(-219.84 -104.5)"/><path class="cls-3" d="M377.19,533.3l-1.31,1.08-.27,1.39a4.88,4.88,0,0,0-1.4.84l-.45-.54-.68.54-1.45-3v-3.46l-.67-1,.18-4.85-.54-10.08.36-3.31-.64-1.77.82-.77L370.6,507l.18-1.46.45-.62-.09-1.92h.49v-3.16l.18-1.53c-.24-.11-.52-.59-.85-1.47L369.51,498a6.36,6.36,0,0,1-1.22,2.54l-.09,1.69-1,.77-.18,2.23-.63.77v1.16a7.34,7.34,0,0,0-1.31,2.77l-.63.69-1.4,4.23-2.21,3.77-.72,2.08-1.95,3.46-.49,1.85L355,529.15l-3,6-1,.46c-.3.1-.77.64-1.4,1.62h-.27c-.51,0-.92-.85-1.22-2.54a7.91,7.91,0,0,1-3.66-6.62l.73-.77a33.79,33.79,0,0,1-.73-6.16l-.49-.61.31-.85a6.2,6.2,0,0,0,.27-1.58c.06-.74.15-1.78.28-3.11l.63-5.85a4.45,4.45,0,0,1-.09-1.08,6.35,6.35,0,0,1,.27-1.77,12.26,12.26,0,0,1-.18-1.69,9.64,9.64,0,0,1,.18-1.62l.36-.15a7.88,7.88,0,0,0,.77-3,2.24,2.24,0,0,0-.3-1.23,1.64,1.64,0,0,1-.29-.61.78.78,0,0,1,.5-.77,1,1,0,0,1-.68-1c0-.52.32-.77.95-.77v-.31a8.32,8.32,0,0,1,.56-3.12,8.35,8.35,0,0,0,.61-2l-.63-.31,1.22-3.31v-.77A12,12,0,0,1,350,480l-.09-2.85.41-.46a3.66,3.66,0,0,1-.32-1.54c0-.31.2-.46.59-.46v-2.54a.79.79,0,0,0,.45-.77,3.19,3.19,0,0,0-.09-.85c.18-.46.6-1.31,1.26-2.54a14,14,0,0,0,1.31-3.07h.27c.7,0,1-.29,1-.85a1.62,1.62,0,0,0-.27-.77c1.24,0,1.88-.41,1.94-1.23l1.67-1.46,4.79.69v.61l3.88,1.39h.36c.58,0,.86.44.86,1.31l.45-.31c.15.92.5,1.38,1,1.38l.45-.15.82,1.39,1.94.84v1.39a11.73,11.73,0,0,1,3.34-2.54v2.54h-.45l.9.77-.18.31.72,4-.81,1.54-.36,2.61a17.36,17.36,0,0,1-.86,3.24l.59,2-.52,1.23a9.89,9.89,0,0,0-.43,3.54,1,1,0,0,1,.27.77l-.18,1.31.09,1.07-.27,1.7.18,1.46-.54,1.08.18,3.46-.27.46.27.69-.27.47a1.34,1.34,0,0,1,.09.61,3.85,3.85,0,0,1-.27,1.39l.27,1-.45,1.38a3.9,3.9,0,0,0-.37,2.23l.37,2-.86,1.93a6,6,0,0,0,.86,2.08,24,24,0,0,0-1.13,6.08l.76.3-.09.85a3.82,3.82,0,0,1,.09,1.08,9.94,9.94,0,0,1-.67,3.15h.58l.28,2.39,1.85.31.63,2a.86.86,0,0,0-.27.54,2.55,2.55,0,0,0,.9,1.54h-.09q-.18,0-.18.15A3.56,3.56,0,0,0,377.19,533.3Zm-4.74-56.64-.55-2.85-1.48-.77-2.58-3.92c-.39-.41-.71-.62-.95-.62a1.61,1.61,0,0,0-.72.31l-.45-.77h-1.49l-.45-1-1,.69-.45-.69-.77.38-1.44-.38c-.7,0-1.78.59-3.25,1.77l.18.62-.82.46-.18.61-1,.23v.93q-.9.91-2.12,5a79.25,79.25,0,0,1-1.67,8.08l.72.62-1.17,1.77.36,1.23a13.28,13.28,0,0,0-.81,4.85v.84l-.68,1.7v2.69a7,7,0,0,0-.81,2.85l-.36.61v2.85l-.32.77a33.77,33.77,0,0,1-.36,4.23l.5,1.93a4.76,4.76,0,0,0-1.31,1.92l.36,1.23-.54,1.23.72,3.16-.81,1.92.09,3.77-.27,1.77.45.47.18,1.07a4.14,4.14,0,0,1,1.31,1.77l2.12-.84c.39-1.54,1.07-2.36,2-2.47l-.18-1.15,1.47-.65a3.36,3.36,0,0,0,.2-.89,3.27,3.27,0,0,1,.81-1.62h.18c.18,0,.28-.2.28-.61l1.67-3.31h-.37l1-1.54a4.34,4.34,0,0,1,1.49-1.46l.67-3a4.51,4.51,0,0,0,1.95-3.31h.54l.9-2-.18-1.31.86-.31a2.89,2.89,0,0,1-.18-.77,9.31,9.31,0,0,1,.63-1.73c.42-1,.75-1.84,1-2.5l.41.31a4.79,4.79,0,0,1,1-2.85,4.17,4.17,0,0,1,.73-2c.36-.49.61-.74.76-.74h.63l.1-1.92a1.3,1.3,0,0,0,.18-.62,1.75,1.75,0,0,0-.28-.92,10.39,10.39,0,0,1,1.31-2.85l.18-1.69.64-.85-.18-1.38a11.51,11.51,0,0,0,.67-2.85l.82-1.38Z" transform="translate(-219.84 -104.5)"/><path class="cls-3" d="M421.57,473,421.3,475l-2.71.61-1.76,2.23-1.17.31-1.49,1.54-1.49,1.16a6.83,6.83,0,0,1-1.77,2v.77l-1.35,1.15-.95,2.54h-1l-.5,2.46-1,1.16a4.14,4.14,0,0,0-1,1.69l-.9,2.85c-.7.61-1.1,2-1.22,4.23l-.45-.31-.18,1-.68.77-.63,2.7a10.35,10.35,0,0,0-1,3.61l-.85.62v3.31a5.72,5.72,0,0,0-.46,1.69l.18.54-.9.62.27,1.23a33.77,33.77,0,0,1-1.4,5.69l.45,2-.9,2.54a22,22,0,0,1,.18,2.39l-.18,2.54.41,2.77a4.51,4.51,0,0,0,.4.92l.68,1.16a10.18,10.18,0,0,1-1.13,2.69l-1.22-.77.18,1.39-2-.62v-2.08l-.27-1.38.27-2.54-.27-1.08.18-5.39-.18-3.61a1.11,1.11,0,0,1-.63-.93,5.14,5.14,0,0,1,.63-1.92v-2.31c0-1.23,0-2.13-.09-2.69l.36-.77-.36-3,.27-2.39-.27-1.46.27-4.24-.45-1.23.27-1.46-.54-3.15.18-2.47c0-.66-.06-1.61-.18-2.84l.27-.77-.54-5.39-.68-.77.68-2.69a13.39,13.39,0,0,1-.95-5.24V474.2a5.47,5.47,0,0,1-.54-1.46,5.76,5.76,0,0,1,2.3-2.54l.68.3a11.34,11.34,0,0,0,1,3.7l-.18,3.92.9,11.93a4.06,4.06,0,0,1-.54,2.08l.45,3.31-.27,2.38.27,2.54-.18,2,.68,2.39-.41.46.32,3.62.72.31.32-3.08a12.93,12.93,0,0,1,1.08-2.77,6.91,6.91,0,0,0,1.18-3.93v-.92L400,498c.09,0,.17-.19.23-.58s.16-.58.32-.58h.27l.54-3.07,1.4-1.62.09-.92h.63l-.27-1.77,1.4-1.08.09-1.93,1.31-.3a8.24,8.24,0,0,0,1.35-3l.86-.3a16.1,16.1,0,0,1,1.67-2.85c.21,0,.36-.15.45-.46l1.49-1.39.36-1.15.82-.77c1.59-2,2.68-3,3.25-3h.36a1.51,1.51,0,0,0,1.31-.77l.81.46c.42-.51.77-.77,1-.77C420.92,472.53,421.51,472.84,421.57,473Z" transform="translate(-219.84 -104.5)"/><path class="cls-3" d="M463.74,459.34l-.45,1.62.09,2.31-.95,1L462,467.5a6.8,6.8,0,0,1-.86,2.08l-.18,2.08h-1a22.28,22.28,0,0,1,.45,2.85,2,2,0,0,1-1.49,1.84v1.16l-.81,5.31-.77,2.54h-.54a3.72,3.72,0,0,1,.54,1.92l-1.18,2L454,498.75l-1.94,5.69V507a3.3,3.3,0,0,1-.65,1.54,3.26,3.26,0,0,0-.66,1.62,2.65,2.65,0,0,0,.45,1.23,2.38,2.38,0,0,1-2,1.08l.36,1.77a12.7,12.7,0,0,0-1,3.31,3.74,3.74,0,0,0-.95,2.15,3.92,3.92,0,0,0,.09,1H447v1.69l-1.22,1.31-.63,2-1.85,3.47-2.4,6.31c-.48,1.18-1.16,1.77-2,1.77a2.64,2.64,0,0,1-2.57-2.08l-3-8-.18-2.85-.54-.62-.09-3.61-1-1.93v-3.62l-2.21-9.62.09-1.92-.59-1.77a19.19,19.19,0,0,1-.36-3.23l-.63-1.46-.46-2.08a5.69,5.69,0,0,0-.67-1.85l-1.09-1.69-.81-5.54-1-1.39a7.64,7.64,0,0,1-.86-1.85l-.81-2.61a1.09,1.09,0,0,1-.54.31c-.63,0-.95-1.36-.95-4.08a4,4,0,0,1,1.85-3.77c1.09,1.53,1.86,2.68,2.33,3.42a23.08,23.08,0,0,1,1.76,4.69c.71,2.39,1.36,3.69,2,3.89-.27.1-.4.36-.4.77a3.22,3.22,0,0,0,.27,1.08v1.31l1.13,1.54-.27,1.38.27,3.16,1,5.08.28.46.18,2.08.45.46v1.54l1.13,6.92.27,2.7,1.49,5.69,1.17,7.39,1,1.31v.31c0,1.43.65,2.15,1.94,2.15h.36v-.77c0-.15.2-.35.61-.58s.79-1,1.15-2.27c.24.21.39.31.45.31s.27-.2.27-.61a8.2,8.2,0,0,0-.18-1.24l2.13-2.07a11.3,11.3,0,0,1,.22-1.85,4.83,4.83,0,0,1,.54-1.46l.82-1.23,1.67-4.08.54-2.85.95-1.16.36-1.69a6.86,6.86,0,0,1,.9-1.92l-.09-1.7.45-.3.32-1.62.36.62a8.2,8.2,0,0,1-.18-1.24q0-1.06.63-1.23c.18-.77.45-1.15.81-1.15a14.8,14.8,0,0,0,.68-4.39h.72l.09-2.08a23.41,23.41,0,0,0,.86-4.38l.54-.16,1.31-6.46.27-.62-.09.93a8.53,8.53,0,0,0,.84-2.66c.13-.95.25-1.42.34-1.42s.22.1.4.31l1.18-7.24.86-1.92v-.93l.63.31L460,466a13.32,13.32,0,0,0,1.74-4.35c.34-1.61.68-2.42,1-2.42a.89.89,0,0,1,.5.15l.09-.92Z" transform="translate(-219.84 -104.5)"/><path class="cls-3" d="M493.31,520.53a8.4,8.4,0,0,1,.68,2.61,9.24,9.24,0,0,1-.84,2.62,23.08,23.08,0,0,0-1.28,4.23l-.68.16-1,3.31-1.13.3-2.48,2.85-.46,1.69-.76-.15-.82,1.62h-1.31l-.27.77-.63-.16c-.66,0-1.25.52-1.76,1.54l-.59-.77a2.71,2.71,0,0,1-1.53.77,2,2,0,0,1-1.67-.77,4,4,0,0,1-1.22.16l-.54-.77a3.67,3.67,0,0,1-3.34-2.39v-1.92l-1.49-1.39-.37-1.61a6.86,6.86,0,0,0-1-2V530l-1-7.46.18-5.31.36-3v-3.31l.5-2.85-.18-2.08a3.76,3.76,0,0,0,.63-1.73,14.54,14.54,0,0,1,.54-2.35c-.12-.92-.24-2.23-.36-3.92l.82-1.16-.82-1.54a10,10,0,0,0,.64-2.23l-.46-4.69a20.07,20.07,0,0,1,.27-3.31c.37.92.77,1.38,1.22,1.38a6.48,6.48,0,0,0,1.76-.61,5.74,5.74,0,0,1-.09-1.08,2.88,2.88,0,0,1,.73-1.92,41.11,41.11,0,0,1,2-7.24,5.19,5.19,0,0,0,.86-3.15h.45l.45-1.54.54-.39a7.48,7.48,0,0,1,.95-2.31c.69-.35,1.52-1.56,2.48-3.61a1.33,1.33,0,0,0,.77.15,5.71,5.71,0,0,0,.72-1.77,18.46,18.46,0,0,1,1.67-.92c.27,0,.54.31.82.92l.85-.31.46.62h.54c.33,1.69.95,2.54,1.85,2.54h.27a3,3,0,0,0,.59,1.61l-.41.31Q491,469,491,473.81l-.27,1.77L491,480l-.45.69-1,4.7-1.85,3.92-.09,2.23a32.7,32.7,0,0,1-5.42,6.31c-.12.62-.32.93-.59.93a2.14,2.14,0,0,1-.72-.31l-2,2.39H477.6l-1.76,1.38-.77-.77a4.69,4.69,0,0,0-1.89-.61,10.63,10.63,0,0,0-1.4,5.77l-.64,1.31a28.21,28.21,0,0,1-.45,4.07l-.49.47.49,5.69-.49.77.09,1.77-.09,2.16c0,.36.07,1.33.22,2.92s.39,2.51.72,2.77a3.52,3.52,0,0,0,.88,2.62,6.63,6.63,0,0,0,2.37,2.15v.93l2.4.61,3.43.31,2.3-.46a10.91,10.91,0,0,1,2-2.08l.73-1.85h.85l.09-.77a7.12,7.12,0,0,0,2.19-1.57,1.88,1.88,0,0,0,.21-.81q.27-.93.81-.93l.27-1c1.35-.36,2.2-1.87,2.53-4.54A1.31,1.31,0,0,1,493.31,520.53Zm-7.58-35.94c.24,0,.64-.7,1.22-1.93l.27-1.84c.75-2.16,1.19-3.53,1.31-4.12a11.22,11.22,0,0,0,.18-2.19,29.06,29.06,0,0,0-.63-4.62l-1.86-1.08a3.14,3.14,0,0,1-.94.31l-.55-.31c-.45,0-.76.46-.94,1.39a5.26,5.26,0,0,0-2.49,1.15l-.27,1.08a.53.53,0,0,0-.36-.16.46.46,0,0,0-.25.08.77.77,0,0,0-.2.23,3.76,3.76,0,0,0-.18.35,2.69,2.69,0,0,0-.16.5c0,.2-.09.42-.14.65l-.13.69a7.1,7.1,0,0,1-.56,1.35l-.68,1.39-1.31,4.23-.68,1a5.14,5.14,0,0,0-.5,2,44.26,44.26,0,0,1-2.43,7.39l.63.61.31,1.31,1.54.77a6.83,6.83,0,0,1,2.8-2.08l.27-.92a1.61,1.61,0,0,0,.72.31c.3,0,.59-.31.86-.92l1.08-.31.68-1.93H483l.45-1.69c.82,0,1.58-.64,2.31-1.92Z" transform="translate(-219.84 -104.5)"/><path class="cls-3" d="M533.18,473l-.27,1.93-2.71.61-1.76,2.23-1.17.31-1.49,1.54-1.49,1.16a6.83,6.83,0,0,1-1.77,2v.77l-1.35,1.15-.95,2.54h-1l-.5,2.46-1,1.16a4.14,4.14,0,0,0-1,1.69l-.9,2.85c-.7.61-1.1,2-1.22,4.23l-.45-.31-.18,1-.68.77-.63,2.7a10.35,10.35,0,0,0-1,3.61l-.85.62v3.31a5.72,5.72,0,0,0-.46,1.69l.18.54-.9.62.27,1.23a33.77,33.77,0,0,1-1.4,5.69l.45,2-.9,2.54a22,22,0,0,1,.18,2.39l-.18,2.54.41,2.77a4.51,4.51,0,0,0,.4.92l.68,1.16a10.18,10.18,0,0,1-1.13,2.69l-1.22-.77.18,1.39-2-.62v-2.08l-.27-1.38.27-2.54-.27-1.08.18-5.39-.18-3.61a1.11,1.11,0,0,1-.63-.93,5.14,5.14,0,0,1,.63-1.92v-2.31c0-1.23,0-2.13-.09-2.69l.36-.77-.36-3,.27-2.39L505,506.6l.27-4.24-.45-1.23.27-1.46-.54-3.15.18-2.47c0-.66-.06-1.61-.18-2.84l.27-.77-.54-5.39-.68-.77.68-2.69a13.39,13.39,0,0,1-.95-5.24V474.2a5.47,5.47,0,0,1-.54-1.46,5.76,5.76,0,0,1,2.3-2.54l.68.3a11.34,11.34,0,0,0,1,3.7l-.18,3.92.9,11.93a4.06,4.06,0,0,1-.54,2.08l.45,3.31-.27,2.38.27,2.54-.18,2,.68,2.39-.41.46.32,3.62.72.31.32-3.08a12.93,12.93,0,0,1,1.08-2.77,6.91,6.91,0,0,0,1.18-3.93v-.92l.58-.46c.09,0,.17-.19.23-.58s.16-.58.32-.58h.27l.54-3.07,1.4-1.62.09-.92h.63l-.27-1.77,1.4-1.08.09-1.93,1.31-.3a8.24,8.24,0,0,0,1.35-3l.86-.3a16.1,16.1,0,0,1,1.67-2.85c.21,0,.36-.15.45-.46l1.49-1.39.36-1.15.82-.77c1.59-2,2.68-3,3.25-3h.36a1.51,1.51,0,0,0,1.31-.77l.81.46c.42-.51.77-.77,1-.77C532.53,472.53,533.12,472.84,533.18,473Z" transform="translate(-219.84 -104.5)"/><path class="cls-3" d="M549.93,450.8l-.09,1.46V453l-.5,1.62L549,456.8q-2.25,3.93-2.21,5.08a7.39,7.39,0,0,0-1.22,2l-.72,2.39a7.43,7.43,0,0,0-1.4,3.93c-.42.66-1,1.51-1.67,2.54,0,2-.48,3.41-1.36,4.23a11.76,11.76,0,0,1-.76,4.15l-.64.47-.18-2.24a8.35,8.35,0,0,1,.27-1.69l-.09-.54a4.77,4.77,0,0,1,1-3.08l.49-1.69a11.36,11.36,0,0,0,.55-2l-.09-.77.54-1.23v-1.16l.36-.92.95-4.08-.09-.92.45-1.16a19.63,19.63,0,0,1-.09-2.15c0-1.75.34-2.9,1-3.46l-.32-1.47a1.84,1.84,0,0,0,.59-1.54,4,4,0,0,0-.09-1l.45-1.23v-.61c0-.77.21-1.16.63-1.16l.59.23h.45a2.24,2.24,0,0,1,2,1.08l.9.15.09.93Z" transform="translate(-219.84 -104.5)"/><path class="cls-3" d="M587.86,522.53l-.64,1.23c-.15.36-.55,2-1.22,4.77l-1.3,1.62.09.92h-1.22l-1.18,2.23h-1.58l-1,.93c-.3,0-.63.3-1,.92a1.94,1.94,0,0,0-1.22-.46,2.16,2.16,0,0,0-1.17.46v.92l-1.67-.3-1.31.3-1.22-.3-.18.46-.45-.46-.82.46h-.58a3,3,0,0,0-1.36.38l-.95-.54-.72.85-.36-.69-.68.69a3.2,3.2,0,0,0-1.94-1.15,1.54,1.54,0,0,0-.81.46,3,3,0,0,0-1.58-.7l-2-.38a3,3,0,0,0-1.49.31l-.18-.62-.82.93c-.18-.42-.4-.62-.67-.62l-.27-.92q-2.85-.24-2.85-6.93l1.94-.46-.09-1.16.45-1.07.28.92h.54v.77l.86-.77a1.06,1.06,0,0,1,.72,1.15,5.52,5.52,0,0,1-.27,1.39l.81.15v2.39l2.35.61.9,1.39.27-.77L574,530.61l4.06-1.31.23-.77,1-.31.27-.61a8.19,8.19,0,0,0,3.71-2.54l.27.46.18-.92.67-.93.09-.54-.45-1.07.18-1.39-1-1.46L583,518a2.16,2.16,0,0,1-.9-.93l-.4.31-.91-1.46h-.36l-.4-.92h-.91c-.18-.82-.52-1.24-1-1.24l-.63.16a3.45,3.45,0,0,1-2.75-1.62h-1l-1.17-1.23-.59.62-.27-.77h-.63l-1-1.47-2.76-2-1-1.61-3.11-.93-.09-.46-2.62-3.15-1.17-5.08-.95-2.46-.27-7.32.27-.77a13.93,13.93,0,0,1,.95-5.38A5,5,0,0,0,561,477l.63.15a9.29,9.29,0,0,1,1.71-3.77l1.13-1.69,5.38-3.93,2.71-.84,2.66-1.39,4.15.46.18.93h.27a1.35,1.35,0,0,1,1.22.84v1.39l1.13,1.38c-.33,2.47-.49,3.85-.49,4.16,0,.92-.28,1.38-.82,1.38-.24,0-.67-1.1-1.31-3.3l-2.48-.31-.63.31c-1-1.24-1.52-1.85-1.67-1.85s-.27.15-.27.46l-.86,1.08a2.89,2.89,0,0,0-2.48,1.38,3.74,3.74,0,0,0-2.4,1.93h-1l-.76,1a6.34,6.34,0,0,1-1.81,1.07l-.36.77-.5.47-1.26,2.07-.86,2.31a5.49,5.49,0,0,0-1.35,1.93l-1,6.46.45.46v.46a6.91,6.91,0,0,0,1.49,4.47V498l2.48,2.54h.59l1.35,2.31h1.86l1.12,1.61,2.13.46.63.93,4,2.08c0,.61.23.92.68.92a3,3,0,0,1,2.08.92,4.34,4.34,0,0,0,1.8,1.16l.09.77.81.77h1.77l1.58,1.77a5.82,5.82,0,0,0,1.21,2.84l-.09.47.46,1.07.81.31-.36,1.16A5.8,5.8,0,0,1,587.86,522.53Z" transform="translate(-219.84 -104.5)"/><path class="cls-3" d="M671.88,507l-1.67,1.7.36,2.38c0,1.34-.77,2-2.3,2l-.72,3.31-3.08,3.46a28.23,28.23,0,0,1-1.76,3.85c-.9,0-1.82.63-2.77,1.89s-1.58,2.08-1.9,2.46a8.3,8.3,0,0,1-1.06,1.08,6.33,6.33,0,0,1-1.2.81,8.63,8.63,0,0,0-1.71,1.34,6.48,6.48,0,0,1-1.36,1.12,2.49,2.49,0,0,1-.7.08h-.58c-1.15,0-2.62,1.2-4.43,3.61l-1.4-.46-1.13.62a4.14,4.14,0,0,1-1.62.69,3.22,3.22,0,0,1-1.33-.35,3.19,3.19,0,0,0-1-.34h-.19c-.42.56-.79.84-1.12.84s-.64-.33-1-1l-1.58-.3a1.58,1.58,0,0,0-.95.46l-1.26-.77-.86.61-1.85-1.38-.81-1.08a8.85,8.85,0,0,0-2.12-1.46l-.5-2c-1.47-.67-2.27-1-2.39-1.12a5,5,0,0,1-.39-1.88,4.69,4.69,0,0,0-.72-2.39,4.83,4.83,0,0,1-.83-1.46,14.33,14.33,0,0,1-.61-2.31,20.09,20.09,0,0,0-.7-2.62,17.05,17.05,0,0,1-.88-3,14.69,14.69,0,0,1-.3-2.88V512l.18-4.84a10.9,10.9,0,0,1-.54-3.31l.54-2.7v-2.69l.54-.46.19-2.54,1.12-7.24.82-3.46.4-.15.18-2.39c.3-.15.52-1.06.64-2.73a10.2,10.2,0,0,1,1.1-4.2,6.07,6.07,0,0,0,.93-2.69,5.35,5.35,0,0,0-.36-2.08l1.08-.61a13.78,13.78,0,0,1,1.76-3.31l.5-3.31,1.17-1.23.36-2.54a4.25,4.25,0,0,0,2.67-2.73q.72-2,1.8-2.43l.59-1a5.16,5.16,0,0,1,1.9-1.38l.27.3,1-1.77.64,1.31.9.31a5.28,5.28,0,0,1,3-.92l1.85.53c.09.06.32.24.68.54l2.89,1.85,6.5,7a7.65,7.65,0,0,0,1.31,3.31l.54,3a25.39,25.39,0,0,1,.86,4.85l-.09,3.47a23.89,23.89,0,0,0-.23,3.31.46.46,0,0,0,.14.3,4.77,4.77,0,0,1-.61,1.66c-.41.79-.7,1.4-.88,1.81l-1.67.61-.59-.77a2.49,2.49,0,0,1-.45-.77l-.27-.84a5,5,0,0,1-.3-1.31q-.1-.93-.24-1.77v-2.39l-.27-2.69v-3.77l.36-2.85q-1.73-5.16-4.38-6.23-.54-.24-.54-.54v-.16a1.05,1.05,0,0,0-.41-.61,1.59,1.59,0,0,1-.5-.77h-1.94l-1.31-1.77c-.9,0-1.35.31-1.35.92l-.86-.92-.9,1.08L641,457l-.91,1.15A3.09,3.09,0,0,0,639,458a2.56,2.56,0,0,0-1.4.46L636.08,462l-2.49,4.23-1.94,5.08-.81.62-.77,4.07-1.26,1.77V480l-1.58,4.62-.77,5.15h-.63l.36,3-.91,3,.28,1.07H625v2.39l-.36.46.09,6.16-.4,4.62a11.43,11.43,0,0,1,1,4.07l.81,1.08v1.93l.68,1.69-.41,1.77,1.76,3.15.09,1.54,2.89,1.93-.27,2,3.79.54,1.18,2,1.94-1.08,1,2.08,2.12-1.31c.51-.72.92-1.08,1.22-1.08s.27.16.27.46l1.35-.15.77,1.08,1.49-.93h.45a2,2,0,0,0,2-1.19,2,2,0,0,1,1.92-1.19,4.53,4.53,0,0,1,1.31.31,1.94,1.94,0,0,1,1.94-1.85,5.05,5.05,0,0,1,2.31-2.23,6.48,6.48,0,0,0,2.66-1.54l.68-1.93a19.49,19.49,0,0,0,2.57-1.92l1-2.15,1.58-1.16,4.93-8.77,1.67-1.62Z" transform="translate(-219.84 -104.5)"/><path class="cls-3" d="M719.87,527.15a6,6,0,0,1,1.49-.16c.67,0,1,.41,1,1.23a4,4,0,0,1-1,2.39l-.67.61-.46.85a8.78,8.78,0,0,1-1.58,1.69l-1.49.77c-.36.62-1.36.93-3,.93a5.26,5.26,0,0,1-1.35-.62,4.25,4.25,0,0,1-1.45-1.08l-3-4.61-.68-4.85-.91-1.46v-.77a12.14,12.14,0,0,0-.63-4.08l.09-3.77c.24-1.85.36-3,.36-3.31a11.38,11.38,0,0,0-.54-3.47l.27-7.08-1,.93-.64,1.69-.85,1a4.87,4.87,0,0,0-.91,1.85L702,506a5.62,5.62,0,0,0-1,3.16,4.35,4.35,0,0,0-1.71,2.73,13.58,13.58,0,0,1-1.4,3.62,6.77,6.77,0,0,1-1.58,2.19,2.08,2.08,0,0,0-.86.92l-2.67,5.54h-.27l-2.16,4.39-1.72,1.62-.77,2a23.47,23.47,0,0,0-3.79,2.69l-1.4-1.54a1,1,0,0,1-.63.16c-.36,0-.54-.29-.54-.85a3.47,3.47,0,0,1,.09-.92l-1-.93a5,5,0,0,1,.31-1.61l-1.21-2,.72-1.62h-1l-.67-3,.67-.93-.85-2.07c0-2.57.1-3.93.31-4.08l.05-2.7a17.42,17.42,0,0,1,.49-3.31l-.76-.92a7.84,7.84,0,0,0,.76-3A10.13,10.13,0,0,0,679,503q.54-.47.54-2.46c0-.52,0-1.21-.09-2.08l-.36-5.23,1.09-11q-.09-2.85-.45-6l-.37-2.7c0-1.64.53-2.46,1.58-2.46l1.36.62L683,473l-.41,3.31-.18,7.93.18,5-.63,2.54.36,1.54-.36,2.39v2.07c-.24.16-.32.48-.23,1a6.7,6.7,0,0,1,.14,1,4.45,4.45,0,0,1-.36,1.77l.63,1.39-.9,1.92.54,1.39-.27,2.08.27,2.54v3l.54,1.08-.45,3.77a7.24,7.24,0,0,0,.54,2.38l-.27,1.7.45,2.23a13.41,13.41,0,0,1,1.94,3,2.93,2.93,0,0,0,1.76-1.54,19.32,19.32,0,0,1,1.94-2.69c0-.11-.12-.16-.36-.16a3.22,3.22,0,0,0,1.49-2.54,3.56,3.56,0,0,0,1.49-.61l.18-1.93.91-.61a5.47,5.47,0,0,1,3.07-3l.09-1.54,1.67-2.39c.15-2,.79-3.05,1.94-3.15l.36-2.08.81-.62,1.22-3h.54v-.92l.86-.77.54-2.23a25.25,25.25,0,0,1,2.22-1.77l.36-1.7.67-.46v-1l.36-.15c.16-2.52.68-3.77,1.58-3.77L708,489l1.72-8.69h.41v-2.16h.09c.21,0,.73-1.9,1.58-5.69l1.62-.31-.18.62.95,3-.77,5.85L712,485.05l-.95,5.85-1.17,1.38v3.47l-.68,2.23.18,2.54-.63,1.07.18,6.93-.36,8.54.27.93-.09,1.23H709v2.38a18.46,18.46,0,0,1,1.49,4.7l1.31.54.27,1.38c.84.62,1.58,1.21,2.21,1.77l1.22-.15,1,.46,1.45-1A9.88,9.88,0,0,0,719.87,527.15Z" transform="translate(-219.84 -104.5)"/><path class="cls-3" d="M760.55,522.53l-.63,1.23c-.15.36-.56,2-1.22,4.77l-1.31,1.62.09.92h-1.22l-1.17,2.23h-1.58l-1,.93c-.3,0-.63.3-1,.92a1.94,1.94,0,0,0-1.22-.46,2.16,2.16,0,0,0-1.17.46v.92l-1.68-.3-1.3.3-1.22-.3-.18.46-.46-.46-.81.46h-.59a3,3,0,0,0-1.35.38l-1-.54-.72.85-.36-.69-.68.69a3.2,3.2,0,0,0-1.94-1.15,1.54,1.54,0,0,0-.81.46,3,3,0,0,0-1.58-.7l-2-.38a3,3,0,0,0-1.49.31l-.19-.62-.81.93c-.18-.42-.4-.62-.68-.62l-.27-.92q-2.84-.24-2.84-6.93l1.94-.46-.09-1.16.45-1.07.27.92h.54v.77l.86-.77a1.06,1.06,0,0,1,.72,1.15,5.52,5.52,0,0,1-.27,1.39l.82.15v2.39l2.34.61.91,1.39.27-.77,11.83-1.23,4.06-1.31.23-.77,1-.31.27-.61a8.11,8.11,0,0,0,3.7-2.54l.27.46.18-.92.68-.93.09-.54-.45-1.07.18-1.39-1-1.46-.18-1.23a2.16,2.16,0,0,1-.9-.93l-.41.31-.9-1.46h-.36l-.41-.92h-.9c-.18-.82-.53-1.24-1-1.24l-.63.16a3.48,3.48,0,0,1-2.76-1.62h-.94l-1.18-1.23-.58.62-.28-.77h-.63l-1-1.47-2.75-2-1-1.61-3.11-.93-.09-.46-2.62-3.15L732,496.21l-.94-2.46-.28-7.32.28-.77a14.13,14.13,0,0,1,.94-5.38,5,5,0,0,0,1.76-3.31l.64.15a9.29,9.29,0,0,1,1.71-3.77l1.13-1.69,5.37-3.93,2.71-.84L748,465.5l4.15.46.18.93h.27a1.36,1.36,0,0,1,1.22.84v1.39l1.13,1.38c-.33,2.47-.5,3.85-.5,4.16q0,1.38-.81,1.38c-.24,0-.68-1.1-1.31-3.3l-2.48-.31-.63.31c-1-1.24-1.52-1.85-1.67-1.85s-.28.15-.28.46l-.85,1.08a2.9,2.9,0,0,0-2.49,1.38,3.75,3.75,0,0,0-2.39,1.93h-1l-.77,1a6.23,6.23,0,0,1-1.8,1.07l-.36.77-.5.47-1.26,2.07-.86,2.31a5.59,5.59,0,0,0-1.36,1.93l-.94,6.46.45.46v.46a6.85,6.85,0,0,0,1.49,4.47V498l2.48,2.54h.59l1.35,2.31h1.85l1.13,1.61,2.12.46.64.93,4,2.08c0,.61.22.92.68.92a2.93,2.93,0,0,1,2.07.92,4.42,4.42,0,0,0,1.81,1.16l.09.77.81.77h1.76l1.58,1.77a5.83,5.83,0,0,0,1.22,2.84l-.09.47.45,1.07.82.31-.37,1.16A5.68,5.68,0,0,1,760.55,522.53Z" transform="translate(-219.84 -104.5)"/><path class="cls-3" d="M778,475.58l6.36.46,6.1-.46,1.49.16.63-.16H796c.63,0,.95.46.95,1.39a2,2,0,0,1-1.49,2.08,1,1,0,0,0-.77-.31,1.47,1.47,0,0,0-1.17.77l-1.31-.46-2.49.15a5,5,0,0,1-3.43,1.62l-1.76-.54-.9,1.46h-.86v-.92l-1.58,1.23h-.81l-.27,1.38a9.24,9.24,0,0,0-2.71-.61c-.09.61-.24.92-.45.92s-.3-.2-.54-.62l-1.31.31-.91,1.62-.27,7.69.18,4.62-.27,5.93.09,6.62.27,3.15v2.85l1.09,3.92v.7a8.41,8.41,0,0,0,1.85,5.15l.27,1.31,1.67.62,1.22,2.23,3.43,1.08,4.52-1.77,1.3.69,3.21-2.54,1.22.31a4,4,0,0,1,.63,2,4.12,4.12,0,0,1-1.17,2.54l-.68-.46-1.44,2.07-3.07.62-1,1.08-1.09-1.08a4.8,4.8,0,0,1-3.25,1.39l-1.85-.62h-1l-3.34-3.31-1.58-3.77L774,526l-1.67-7.54-.77-7.08.41-2.85-.77-1.54.36-1.77-.36-2.85,1-1.23-.4-1.46.22-1.85-.41-2.07.19-3-.19-1.53.41-.47v-5.69c-.18-1.39-.44-2.08-.77-2.08s-.39.21-.54.62l-1-.77-1.44.61-1.49-1.84h-.77c-.72,0-1.08-.7-1.08-2.08l.09-2.39-.63-.77.36-1.38,1.35.3,1-.3,1.49.77h3.88l.18-3.62V468.5l-.63-2.69.72-.92a9,9,0,0,0,.18-1.16,2.25,2.25,0,0,0-.72-1.69l.18-6.16-.77-1.92.19-1.39a1.19,1.19,0,0,1-.91-1.23l.63-4.16a12.92,12.92,0,0,0,.86-2.15c1.84,1.54,2.76,2.44,2.76,2.69v.16l-.36,1.54a13.7,13.7,0,0,1,.63,3.46v.46a10.54,10.54,0,0,0-.27,2.23,2.39,2.39,0,0,0,.27,1.23l-.09,1.31.09,1.7L774.5,462l.55,3.92-.36,4.77.36.93L774.5,473l.73,3.93h1.67Z" transform="translate(-219.84 -104.5)"/><path class="cls-3" d="M830.9,497.21l-.64,3.31.37,1.38-.32,3.7a11.19,11.19,0,0,1-.68,2.46v1.85l-.67,3.15-.55,1.39a25.25,25.25,0,0,0-.9,4l-.68.46-.36,2.08-1,1.08-.77,2.84L823.36,526l-.14,2.08-1.17.77q-.85,1.92-1.11,2.46a2.71,2.71,0,0,1-1.22,1.08,4.78,4.78,0,0,0-1.28.92,2.75,2.75,0,0,1-2.58,2.77c-.36.77-.8,1.16-1.31,1.16a1.74,1.74,0,0,1-.72-.31,5.57,5.57,0,0,1-2.35,2.31l-.72,1.92-1.22-1.23-.27.92-1.35-.92-3.26-.54a27.38,27.38,0,0,0-2.39-5.62l.36-2.07-1.31-5.7.55-1.85-.55-4.31.55-2.46c0-.25,0-.93-.14-2s-.14-1.81-.14-2.11a3.67,3.67,0,0,1,.95-2.62v-.85a11.32,11.32,0,0,1,.54-3.46h.55a6.44,6.44,0,0,0,.67-3l-.27-1.08.27-2.39v-1.53a7.85,7.85,0,0,0,.82-3.47l-.27-2.54a5.14,5.14,0,0,1,.27-1.84,3.4,3.4,0,0,0,1.4-2.39,4,4,0,0,0-.37-1.62l.91-2.69a2.38,2.38,0,0,1,.56-1,3.76,3.76,0,0,0,.48-.54l-.18-1.54c1-.15,1.44-1,1.44-2.54a15.77,15.77,0,0,0-.27-2.85q3.07,0,4.06-5.38h.59q.63-1.08.9-1.08a4.15,4.15,0,0,1,.79.38,4.7,4.7,0,0,0,2.19.39l1.45-1.08v1.08a4.74,4.74,0,0,1,2.35,1.77h1.26c.3,1,.59,1.54.86,1.54l.18-.15a12.17,12.17,0,0,0,2.12,3.92l.45,1.92.86.62,1.44,3.62,1.49,7.23v1.46ZM828,501.59a4.73,4.73,0,0,0,.54-1.92,2.28,2.28,0,0,0-.31-1.11,2.41,2.41,0,0,1-.32-.74h.54a3.63,3.63,0,0,0-.63-1.61l.18-.46-.63-2.54.18-3.47-.86-2.46a3.07,3.07,0,0,1-1-1.62v-.46a.85.85,0,0,0-.34-.81.67.67,0,0,1-.34-.65v-.15a19.82,19.82,0,0,1,.41-2l-.59-.77-.9-.16-.36-1.15.36-.93-1.22-1.07-.9-1.47-2.62-1.84-1.09-.39c-1.77,0-2.64.85-2.61,2.54l.13,5.24-1.85.15-2.89,3-.27,1.69-1,1.16-.45,4.54-.9,1.08c-.18.15-.27.89-.27,2.23a18,18,0,0,0,.18,2.85L807,499.36q-.36.31-.36,3a4,4,0,0,1-.86,2.39v1.54l-.81,2.23v1.39l-.28,1,.19,2.15-1.22,5.08.4,1.69v3.7l-.4,2.62.09,3.84,1.35,3a4.87,4.87,0,0,0,1.63,1.7l.27.77.63-.31.59.31,1.08-.77,2.21.15,1-.46.27-1.08,1,.16q1.44,0,1.44-1.62l1.31.62.27-1.24.86-.15.45-1.77a4.73,4.73,0,0,0,1.09-2.15h1.49l.45-1.62,1.58-2.39.59-1.46a4.33,4.33,0,0,1,.81-1.31l1.31-1.15a29.31,29.31,0,0,1,.81-4.39l-.18-1.38,1.31-1-.18-.77c.36-.88.69-1.62,1-2.24h-.45a3.7,3.7,0,0,0,.36-1.38,6.1,6.1,0,0,0-.13-1.15,6.44,6.44,0,0,1-.14-.93,9.44,9.44,0,0,1,.27-2.15,9,9,0,0,0,.27-1.47A.86.86,0,0,0,828,501.59Z" transform="translate(-219.84 -104.5)"/><path class="cls-3" d="M913.07,521.3l-.5,1.23-.63.31a4,4,0,0,1-.61,2.38,2.59,2.59,0,0,0-.61,1.31v.31l-.27.31a4.51,4.51,0,0,1-1,1.88c-.47.54-.76.81-.88.81l-.81-.23-.09,1.61a6.26,6.26,0,0,1-.86,1.24c-.06,0-.45-.11-1.18-.31a2.86,2.86,0,0,1-2,1,14.57,14.57,0,0,1-3.07-.69c-.21-.52-.42-.77-.63-.77a1.22,1.22,0,0,0-.77.46,4.15,4.15,0,0,0-1.44-2.16l.18-1.15c-.69-.51-1-1.57-1-3.16l.09-1.38-1.08-1.46-.59-4.7-.81-2.54v-1.08l-.63-5.08.09-2-.68-5.54-.09-2.38.18-4.85-.36-6.16-1.22,2.23-1.94,5.78-.82,3.3a10.52,10.52,0,0,0-2.3,5.08c-.63,0-1,1.16-1,3.47a14.15,14.15,0,0,0-.94,2.19c-.28.8-.49,1.42-.66,1.89a6.42,6.42,0,0,0-.25.77v.38a13,13,0,0,0-1.94,5.31,14.09,14.09,0,0,0-.9,2.39,37.3,37.3,0,0,1-2.4,5.38,5,5,0,0,0-1.39,2.85c-.25,1-.57,1.57-1,1.77s-.6.75-.6,1.62v.69a6.48,6.48,0,0,0-2.76,1.54c-.54-.1-.92-.72-1.13-1.85l-.18-2.23-.54-1.92V527.3l-.77-5.23a5.74,5.74,0,0,0,.09-1.08,6.85,6.85,0,0,0-.45-2.08l.36-5.31-.36-1.15.36-2.54-.18-1.39v-1.08l-.36-1.46.63-2.31-.45-4.92.18-1.39.27-5.85-.63-3.61.18-2.85-.45-2.23c-.57-2.41-.93-4-1.06-4.74s-.34-1.11-.61-1.11a.39.39,0,0,0-.36-.16c-.21,0-1,.75-2.3,2.24l-1.31,3L862.73,484l-2.49,5.77-.18,1.77-1.49,2.85-.63,3a8,8,0,0,0-.88,2.7c-.22,1.23-.48,1.92-.77,2.07a4.7,4.7,0,0,0-1.15,1.16l-.09,2.85a22.19,22.19,0,0,0-.81,2.46,8.88,8.88,0,0,1-1,2.38,8.15,8.15,0,0,0-.86,3.24c-.69,0-1,.71-1,2.15q-.27,1.62-1,1.62a11.32,11.32,0,0,0-.37,2.23v.46a6.2,6.2,0,0,0-1.12,2,2.24,2.24,0,0,0,.27,1,5.64,5.64,0,0,0-1.63,2.93,9.62,9.62,0,0,1-1,2.54v.69a2.55,2.55,0,0,1-.36,1.54,23,23,0,0,0-1.24,2q-.88,1.5-1.47,1.5c-.45,0-.78-1.2-1-3.62a3.47,3.47,0,0,0,.09-.92,3.4,3.4,0,0,0-.63-2.08V526a8.72,8.72,0,0,1,.36-2.46l-.45-3.46.09-2.54-.09-2.7v-.61a5.57,5.57,0,0,1,.45-2.54l.18-1.23c0-.42,0-1.21-.14-2.39s-.13-1.87-.13-2.08v-2.54A7.46,7.46,0,0,1,843,501l-.72-1.62a1.37,1.37,0,0,0,.23-1.11,3.74,3.74,0,0,1-.14-.89,6.93,6.93,0,0,1,.47-1.88,11.41,11.41,0,0,0,.61-2.74l-.63-3,.27-1.54-.54-5.38.27-2.16-.54-4.31.18-2.85-.63-2.46c.63-2.46,1.25-3.67,1.85-3.62l.36.31.27,2.16c.78.31,1.18,1.15,1.18,2.54l-.19,3.31a1.13,1.13,0,0,0,.77,1.23,10.55,10.55,0,0,0-.86,3.31v.54l.5,8-.22,6-.37,1.7.37,1.92-.28.77.41,1.15a3.12,3.12,0,0,0-.68,2l.18,1.31a2.93,2.93,0,0,1-.54,1.85l.36,4.39-.36,1.61a8.07,8.07,0,0,0-.25,2.85,13.11,13.11,0,0,1,.16,1.69,3,3,0,0,1-.18,1.31,16.63,16.63,0,0,1,.45,1.69,4.2,4.2,0,0,1-.45,1.62l.9,1.08,1.77-3.93.36-2.23a3.37,3.37,0,0,0,.81-1.35,9.23,9.23,0,0,0,.45-1.88,14.55,14.55,0,0,1,1.08-3.23c.12,0,.31-.26.57-.77s.57-1.26,1-2.23a21.69,21.69,0,0,1,1.33-2.85,9.11,9.11,0,0,1,.43-1.58,10.07,10.07,0,0,1,.58-1.35,14.2,14.2,0,0,0,.75-3.15l1-3.16.13-1.15a9.87,9.87,0,0,1,.91-2.08l1.71-3.08c.21,0,.57-.92,1.09-2.77a16.34,16.34,0,0,1,1.71-4.27,5.53,5.53,0,0,0,1-2.58c.55-.15.82-.64.82-1.46a2.78,2.78,0,0,0,1.13-2.15l.27.15c.3,0,.64-1,1-3,.9-1.39,1.55-2.08,1.94-2.08,0,0,.76.31,2.21.92a3.78,3.78,0,0,1,.18,1,3.65,3.65,0,0,1-.18.93l.63.31a16,16,0,0,0,1.31,3.92v2.54l.81,1.62v2a23.9,23.9,0,0,1,1,6.15l-.36,2.54.36,2.24-.86,1.69.5,4.92a19.94,19.94,0,0,0-.32,3.77l.32,4.24-.23,1.38.23,1.62-.32.61a64,64,0,0,1,.68,8.55l-.18,1.23-.41.61a9.51,9.51,0,0,1,.68,3.62l1.58.85L879,518a14.54,14.54,0,0,0,.83-2.66c.38-1.46.72-2.63,1-3.5.33,0,.56-.76.7-2.27s.49-2.37,1.06-2.58a5.33,5.33,0,0,1,.18-1.65,9.06,9.06,0,0,1,1.58-2V503a7.76,7.76,0,0,1,1.76-4.54,23.26,23.26,0,0,1,1.17-4.39,16.12,16.12,0,0,0,1.63-3.38l.95-3.08a22.42,22.42,0,0,0,.86-3.62c1-.61,1.82-2.67,2.48-6.16.69-.3,1.16-1.41,1.4-3.3l1.49-1.16,1.26,1.16-.45.76.63,1.08a1.35,1.35,0,0,0-.72,1.16,1.32,1.32,0,0,0,.45,1.07l-.63,2.08-.54,7.24a2.47,2.47,0,0,1,.63,1.07,15.55,15.55,0,0,0-.72,5.39l.09,2.85-.18,1.08.27,2.07a4.19,4.19,0,0,1-.34.66,1.66,1.66,0,0,0-.25.88,4.88,4.88,0,0,0,.32,1.39c.36.2.54.9.54,2.08a1.83,1.83,0,0,1-.27.92,2,2,0,0,1,.18.85,3.34,3.34,0,0,1-.27.92,25.72,25.72,0,0,0,.86,6.39,44,44,0,0,1,.72,5.62l1.17,1.07.45,3.47a3.9,3.9,0,0,1,1.31,2.07l1.13.77,1.36.47a3.16,3.16,0,0,0,1,.3,2.58,2.58,0,0,0,1.31-.54,6,6,0,0,0,1.31-1.11,11.31,11.31,0,0,1,1.72-1.5,31.44,31.44,0,0,0,1.4-3.77l1.22-.93.54-1.61,1.26.15A9.8,9.8,0,0,0,913.07,521.3Z" transform="translate(-219.84 -104.5)"/><path class="cls-3" d="M1009.19,524.14a14.38,14.38,0,0,1,.36,2.16,3.36,3.36,0,0,1-.83,1.81c-.56.74-1.2,1.63-1.92,2.65l-1-.61-1.22,3.15a5,5,0,0,0-2.84,1.39L999,533.61l-1.49,1.08-.45,1.38c-.87-1.13-1.43-1.69-1.67-1.69s-.18.15-.18.46l-.5-.15-.81,1.38-.81-1.69-.68.46c-.51-.72-1-1.08-1.49-1.08H988l-.86-1.61-1,.31-1.49-1.39-.91.77L983.1,530h-1.36l-.86-1.77H979.8c-.09,0-.28-.38-.56-1.15a5.47,5.47,0,0,0-1.29-2l-2.8-2.54c-1.63-1.34-2.89-3.64-3.79-6.93h-1.09l-1.49-3.15-2.71-3.62-3-6-.86-.47-1.4-2.54a5.44,5.44,0,0,0-1.89-1.38,1.79,1.79,0,0,1-1.13.62c-.27,0-.57-.21-.91-.62v.15c0,.11-.06.16-.18.16h-.94l-.91-2.23a8.32,8.32,0,0,0,.63-3.16l1.13-.62v-.92l1.18-.46c.39-.51.76-.77,1.13-.77a1.17,1.17,0,0,1,.76.38c.27.26.44.39.5.39s.2-.15.32-.46q.4,2.85,3.88,2.85a9.1,9.1,0,0,0,4.69-1v-.46l7-.46a7.63,7.63,0,0,1,5-2.08l.59.31,1.54-.92.4-.93,1.09.16,1.4-.93h1c.51,0,.83-.09.95-.27a2.45,2.45,0,0,0,.18-1.19v-.61c.75-.16,1.13-.36,1.13-.62a5.34,5.34,0,0,0,3.47-5.23,6.81,6.81,0,0,0-1-3.47l-3.07-5H988c-1.42-1.49-2.32-2.23-2.71-2.23h-.9l-1.86-1.39h-1.12l-1.18-1.61h-2.12l-.86-.62-5-.61-.86-.85-.54.54-1-.54-1,.54-2.71-.54-2.75.85-1.49-.85-1.67.31-1.44-.31-1.13.85-.82-.54-1.67,1.77-1.31-.31a23.27,23.27,0,0,1-1.4,3.93l.59,2.23-.27,9.16.63,7.85q-1,5.46-1,6.77l-.63,20.16.72,11.55-.54,6.15v1.54c0,.82-.58,1.23-1.76,1.23h-.36l.45-6.08-.45-2.38-.81-6.47.54-.61a10.15,10.15,0,0,1-1.13-3.16,6.14,6.14,0,0,1,1-3.15l-.77-2.54h-.09c-.12,0-.18-.05-.18-.16a22.2,22.2,0,0,1,1.13-4.38,6.26,6.26,0,0,1-.63-3l.27-2.54v-1.23a11.43,11.43,0,0,0,.63-3.31,14.17,14.17,0,0,0-.63-3.69l.63-2.62-.27-2.38.54-.77a4.43,4.43,0,0,1-.27-1.62,18.52,18.52,0,0,1,.63-3.77l-.9.31-.54-4.23.45-3-.45-6.46.45-.77c-1-1.69-1.7-2.54-2.21-2.54h-.27l-.68,1.08-2.12-.31-1.4,3a3.82,3.82,0,0,0-1.76-1.54,6.61,6.61,0,0,1-.73-2.54,5.43,5.43,0,0,1,.21-1.5,3.59,3.59,0,0,1,.7-1.34l1.22-1.39,2.8-.54,3.79-.31.81-1.07v-.47c0-1.59.71-2.38,2.12-2.38H953c.33,2.2.89,3.31,1.67,3.31a7.44,7.44,0,0,0,1.94-1.39l2.31.93,3.61-.93,4.78.93,6.78.3,3.38,1.08h2.62l1,1.46c.09-.61.29-.92.59-.92s.54.31.9.92a4.18,4.18,0,0,0,.37,1.85l.94.31v-2l3.71,2.54,1.26,1.69.18-.46a4.14,4.14,0,0,0,2.44,1.08l.63,1.3.81.31q1.5,3.93,2.28,5.85a9.18,9.18,0,0,1,.79,3.46,8.88,8.88,0,0,1-1.42,5,58,58,0,0,0-3.09,5.38l-1,.08-.72.08a5.14,5.14,0,0,0-1.58,1.08l-.36,1.3h-2.62l-.72,1.08a2.26,2.26,0,0,1-.86.69l-1.36.7c-1.56,0-2.95,1.1-4.15,3.31l-1.49-1.7-1.31,1.08a1.07,1.07,0,0,0-.72-.46c-.36,0-.83.46-1.4,1.38l-1.27-.92-1.21.92-.46-.92-1.67,1.62-2.21-.47a3.66,3.66,0,0,0-1.4.31l.9,2.16,2.26,3.31.63,1.92,3.62,4.69.81,2.54.59,1.16a30.24,30.24,0,0,1,1.17,4.23l2.48.16,2.8,4.84,1.49,1.16,2,2.15,1.94,1,2.76,1.85,1-.31.45.62.18-.31.36,1.08,1.31-.46.27,1.61,1-1.15,1.08.54,3.16-.54,1.27.54,4.47-1.31,3.29-1.54.23.92.63-1.92h1.4Z" transform="translate(-219.84 -104.5)"/><path class="cls-3" d="M1039.94,497.21l-.63,3.31.36,1.38-.32,3.7a11,11,0,0,1-.67,2.46v1.85l-.68,3.15-.54,1.39a24.69,24.69,0,0,0-.91,4l-.67.46-.37,2.08-1,1.08-.77,2.84L1032.4,526l-.14,2.08-1.17.77q-.85,1.92-1.11,2.46a2.73,2.73,0,0,1-1.21,1.08,4.88,4.88,0,0,0-1.29.92,2.74,2.74,0,0,1-2.58,2.77c-.36.77-.79,1.16-1.3,1.16a1.72,1.72,0,0,1-.73-.31,5.56,5.56,0,0,1-2.34,2.31l-.73,1.92-1.22-1.23-.27.92-1.35-.92-3.25-.54a27.44,27.44,0,0,0-2.4-5.62l.37-2.07-1.31-5.7.54-1.85-.54-4.31.54-2.46c0-.25,0-.93-.14-2s-.13-1.81-.13-2.11a3.62,3.62,0,0,1,1-2.62v-.85a11.32,11.32,0,0,1,.54-3.46h.54a6.44,6.44,0,0,0,.68-3l-.27-1.08.27-2.39v-1.53a8,8,0,0,0,.81-3.47l-.27-2.54a5.14,5.14,0,0,1,.27-1.84,3.4,3.4,0,0,0,1.4-2.39,4.18,4.18,0,0,0-.36-1.62l.9-2.69a2.38,2.38,0,0,1,.56-1,3.76,3.76,0,0,0,.48-.54l-.18-1.54c1-.15,1.44-1,1.44-2.54a15.77,15.77,0,0,0-.27-2.85c2,0,3.4-1.79,4.07-5.38h.58c.42-.72.73-1.08.91-1.08a4.5,4.5,0,0,1,.79.38,4.65,4.65,0,0,0,2.19.39l1.44-1.08v1.08a4.7,4.7,0,0,1,2.35,1.77h1.26c.3,1,.59,1.54.86,1.54l.18-.15a12.17,12.17,0,0,0,2.12,3.92l.45,1.92.86.62,1.45,3.62,1.49,7.23v1.46Zm-2.94,4.38a4.61,4.61,0,0,0,.55-1.92,2.3,2.3,0,0,0-.32-1.11,2.41,2.41,0,0,1-.32-.74h.55a3.53,3.53,0,0,0-.64-1.61l.18-.46-.63-2.54.18-3.47-.85-2.46c-.67-.72-1-1.26-1-1.62v-.46a.85.85,0,0,0-.34-.81.68.68,0,0,1-.34-.65v-.15a19.82,19.82,0,0,1,.41-2l-.59-.77-.9-.16-.36-1.15.36-.93-1.22-1.07-.9-1.47-2.62-1.84-1.08-.39c-1.78,0-2.65.85-2.62,2.54l.13,5.24-1.85.15-2.89,3-.27,1.69-1,1.16-.45,4.54-.9,1.08c-.18.15-.27.89-.27,2.23a18,18,0,0,0,.18,2.85l-1.13,1.07q-.36.31-.36,3a4,4,0,0,1-.86,2.39v1.54l-.81,2.23v1.39l-.27,1,.18,2.15-1.22,5.08.41,1.69v3.7l-.41,2.62.09,3.84,1.35,3a5,5,0,0,0,1.63,1.7l.27.77.63-.31.59.31,1.08-.77,2.22.15,1-.46.27-1.08.95.16c1,0,1.45-.54,1.45-1.62l1.31.62.27-1.24.86-.15.45-1.77a4.8,4.8,0,0,0,1.08-2.15h1.49l.45-1.62,1.58-2.39.59-1.46a4.33,4.33,0,0,1,.81-1.31l1.31-1.15a29.31,29.31,0,0,1,.81-4.39l-.18-1.38,1.31-1-.18-.77c.36-.88.69-1.62,1-2.24h-.46a3.75,3.75,0,0,0,.37-1.38,6.23,6.23,0,0,0-.14-1.15,6.44,6.44,0,0,1-.14-.93,9,9,0,0,1,.28-2.15,9,9,0,0,0,.27-1.47A.85.85,0,0,0,1037,501.59Z" transform="translate(-219.84 -104.5)"/><path class="cls-3" d="M1088,527.3q-1,6.08-2.48,8.16a3.2,3.2,0,0,1-1.49-1.7l-1.67-4.46-.64-2.46-1.22-7.31v-7.08l-.27-6.16.27-3.46-.27-3v-4.38l-.85-2.08-.37,1.31-.72.15-1.4,5.54-1.67,4.08h-.72l-.23,1.62a12.12,12.12,0,0,1-.52,2.08c-.25.77-.56,1.69-.92,2.77l-2.48,4.69-1.95,4.93-2.12,3.77a30.78,30.78,0,0,1-1.67,3.92l-1.26,1.7a18,18,0,0,0-1.54,3.23l-1.58.92a6.07,6.07,0,0,0-1.08,1.7l-1.09.38c-.33.05-1,.56-1.89,1.54l-.81-.31-.28.92-1-.15-2.94-3.77a17.64,17.64,0,0,1-1.08-4.58c-.24-1.92-.59-2.91-1-3l-.5.31,1-2.54-.45-2.54.36-2-.18-3,.63-4.77v-4.38l.63-1.62v-3.93a12.76,12.76,0,0,0,.68-3.61l.36-.46v-2.85l.82-2.54.09-2.16a14.55,14.55,0,0,0,.85-3.15l.46-4.77a5.49,5.49,0,0,1,1-2.85l.09-1.69a9.33,9.33,0,0,1,.59-2.08,6.83,6.83,0,0,0,.5-2.39,15.88,15.88,0,0,1,2.3-3.31l-.18-.61a1,1,0,0,0,.68-.77.73.73,0,0,0,.54.15.83.83,0,0,0,.54-.15l-.45-.31,4-1.92c.57-.11,1.1-.18,1.58-.23s.72-.24.72-.54V466l1.49-.15.82.77.49-.31c.09.51.33.77.73.77a.56.56,0,0,0,.36-.15l1.49.15v.69l.36-.31,1.4,2,1.4-.62.81,2.54,1.49,2.08a10.34,10.34,0,0,1,.81,2.31l1.49,1.38c.48.87.86,1.31,1.13,1.31s.3-.21.36-.62l.64-5.38.72-2.85-.27-4.08.4-7.39-.4-1.92a7.49,7.49,0,0,0,.67-3.31l-.4-1.39.31-4.31-.31-4.38.4-.93-.4-.46a2.54,2.54,0,0,0,.49-1.31,3.67,3.67,0,0,0-.18-.92,9.77,9.77,0,0,0,.27-2.23,10.12,10.12,0,0,0-.27-2.31h.46a4.88,4.88,0,0,1-.19-1.46,2.52,2.52,0,0,1,.91-1.85l-.36-.38.45-.16c.33,0,.55.44.68,1.31.45.15.72.82.81,2h-.45l.09,2.54-.09,1.46h-.55l1,1.85-.36,2.23.63,2.54-.45,1.08a13,13,0,0,1,.45,2.85,6.51,6.51,0,0,1-.27,1.84l.72,1a1.36,1.36,0,0,0-.45.93,1.38,1.38,0,0,0,.77,1.23v.46a2.44,2.44,0,0,1-.77,1.77v1.39q0,3.84-.72,13.23a4.9,4.9,0,0,1,.09,1.16,13.27,13.27,0,0,1-.45,3l.36,1.38-.55,3.62-.27,3.85a13.93,13.93,0,0,1-.58,2.62l.27,1.77-.54,2.84.54,2.16-.72,4.92.45,3.77-.27,2.24.18,2-.55.46c.61,1.69.91,2.59.91,2.69a.92.92,0,0,1-.54.93l.18,1-.18.46.63,1.08-.45,2.54.63,3.46-.27,1.08.27,1.15-.54,2.85.45.77h.77l.63,1.38,1.31-.61.45,1.23Zm-8.81-43-.54-.31-1-1.46-.76-.77a7.73,7.73,0,0,1-.7-2,10.71,10.71,0,0,0-1.29-3,2.29,2.29,0,0,1-.81-.92v-1.08l-1.4-.46-1.36-1.31a3,3,0,0,0-1.1-.77c-.47-.21-1.09-.46-1.88-.77l-2.8.62-.81.77-.86-1.08-1.44.77h-1.85l-.32,1.38-.54.39c0,.87.12,1.38.36,1.54a12.18,12.18,0,0,1-2.3,3.46l-.63,2.85-.86.77-.81,4.31-.27,4.69-.86,1.39v2.69a5.12,5.12,0,0,0-1,2.54l.18,3.77-1.49,4.93-.36,3.46-.09,5.31.27,1.15-.63,2.16.45,1.31-.72,2.61a41,41,0,0,1,1.27,5.7l.85.77-.18,1h.91c.63.72,1,1.08,1.12,1.08s.21-.26.43-.77a1.39,1.39,0,0,1,1.43-.77v.61a3.6,3.6,0,0,0,.72-1.46q.72,0,.72-1.08l.86-.61.36.46.27-1.77,1.85-1.23.18-1.39,1.31-1.31v-.77l1-1.77.32.24c.24,0,.36-.39.36-1.16h.63V518l1.49-1.08-.36-2.39,1-1.07-.64-1.16a.79.79,0,0,0,.55.16c.33,0,.7-.26,1.12-.77l.09-.62,1-.15,1-4.62.9-1.54.36-2.85,1.13-.61a21.83,21.83,0,0,1,2-4.77v-2.16l.86-.61,2.3-7.93Z" transform="translate(-219.84 -104.5)"/><path class="cls-3" d="M1130.33,522.53l-.63,1.23c-.15.36-.56,2-1.22,4.77l-1.31,1.62.09.92H1126l-1.17,2.23h-1.58l-1,.93c-.3,0-.63.3-1,.92a1.91,1.91,0,0,0-1.21-.46,2.16,2.16,0,0,0-1.18.46v.92l-1.67-.3-1.31.3-1.22-.3-.18.46-.45-.46-.81.46h-.59a3,3,0,0,0-1.35.38l-1-.54-.72.85-.37-.69-.67.69a3.22,3.22,0,0,0-1.94-1.15,1.56,1.56,0,0,0-.82.46,3,3,0,0,0-1.58-.7l-2-.38a3,3,0,0,0-1.49.31l-.18-.62-.81.93c-.18-.42-.41-.62-.68-.62l-.27-.92c-1.9-.16-2.84-2.47-2.84-6.93l1.94-.46-.09-1.16.45-1.07.27.92h.54v.77l.86-.77a1.06,1.06,0,0,1,.72,1.15,5.52,5.52,0,0,1-.27,1.39l.81.15v2.39l2.35.61.9,1.39.27-.77,11.83-1.23,4.07-1.31.22-.77,1-.31.27-.61a8.16,8.16,0,0,0,3.7-2.54l.27.46.18-.92.68-.93.09-.54-.45-1.07.18-1.39-1-1.46-.18-1.23a2.16,2.16,0,0,1-.9-.93l-.41.31-.9-1.46h-.37l-.4-.92h-.9c-.19-.82-.53-1.24-1-1.24l-.64.16a3.45,3.45,0,0,1-2.75-1.62h-1l-1.17-1.23-.59.62-.27-.77h-.63l-1-1.47-2.75-2-1-1.61-3.12-.93-.09-.46-2.62-3.15-1.17-5.08-1-2.46-.27-7.32.27-.77a14.12,14.12,0,0,1,1-5.38,5,5,0,0,0,1.76-3.31l.63.15a9.31,9.31,0,0,1,1.72-3.77l1.13-1.69,5.37-3.93,2.71-.84,2.66-1.39,4.16.46.18.93h.27a1.36,1.36,0,0,1,1.22.84v1.39l1.13,1.38c-.34,2.47-.5,3.85-.5,4.16q0,1.38-.81,1.38c-.24,0-.68-1.1-1.31-3.3l-2.49-.31-.63.31c-1-1.24-1.52-1.85-1.67-1.85s-.27.15-.27.46l-.86,1.08a2.89,2.89,0,0,0-2.48,1.38,3.75,3.75,0,0,0-2.39,1.93h-1l-.77,1a6.18,6.18,0,0,1-1.81,1.07l-.36.77-.49.47-1.27,2.07-.86,2.31a5.49,5.49,0,0,0-1.35,1.93l-.95,6.46.45.46v.46a6.91,6.91,0,0,0,1.49,4.47V498l2.49,2.54h.58l1.36,2.31h1.85l1.13,1.61,2.12.46.63.93,4,2.08c0,.61.23.92.68.92a3,3,0,0,1,2.08.92,4.34,4.34,0,0,0,1.8,1.16l.1.77.81.77h1.76l1.58,1.77a5.83,5.83,0,0,0,1.22,2.84l-.09.47.45,1.07.81.31-.36,1.16A5.8,5.8,0,0,1,1130.33,522.53Z" transform="translate(-219.84 -104.5)"/><path class="cls-4" d="M295,402S166.86,677.65,249.75,652c24.7-7.66,66.87-127.22,224.56-75.05,95.13,31.47,176.42,134,333.54,61.92,57.34-26.32,113.17-114.26,200.34-71.31,80.32,39.58,194.84,131.35,116.69-91.94" transform="translate(-219.84 -104.5)"/></g><g id="Layer_2" data-name="Layer 2"><g class="cls-5"><g class="cls-5"><path d="M294.06,405H930a1.1,1.1,0,0,0,1-1.19v-5.24c0-.66-.44-1.2-1-3.74l-634.1,8.9h-2.1c-2.1,0,0,1.27.27,1.27" transform="translate(-219.84 -104.5)"/><path class="cls-6" d="M294.06,405H930a1.1,1.1,0,0,0,1-1.19v-5.24c0-.66-.44-1.2-1-3.74l-634.1,8.9h-2.1C291.69,403.72,293.79,405,294.06,405Z" transform="translate(-219.84 -104.5)"/><rect x="757.41" y="287.14" width="38.9" height="19.08"/><rect class="cls-6" x="757.41" y="287.14" width="38.9" height="19.08"/><path d="M1124,417.71H1017.66c-4.32,0-7.82-4.24-7.82-9.46V395.37c0-5.22,3.5-9.46,7.82-9.46H1124c4.31,0,7.81,4.24,7.81,9.46v12.88c0,5.22-3.5,9.46-7.81,9.46" transform="translate(-219.84 -104.5)"/><path class="cls-6" d="M1124,417.71H1017.66c-4.32,0-7.82-4.24-7.82-9.46V395.37c0-5.22,3.5-9.46,7.82-9.46H1124c4.31,0,7.81,4.24,7.81,9.46v12.88C1131.81,413.47,1128.31,417.71,1124,417.71Z" transform="translate(-219.84 -104.5)"/><path d="M973.63,413.89H936.7c-4.32,0-7.82-4.23-7.82-9.45v-6.53c0-5.22,3.5-9.45,7.82-9.45h36.93c4.32,0,7.82,4.23,7.82,9.45v6.53c0,5.22-3.5,9.45-7.82,9.45" transform="translate(-219.84 -104.5)"/><path class="cls-6" d="M973.63,413.89H936.7c-4.32,0-7.82-4.23-7.82-9.45v-6.53c0-5.22,3.5-9.45,7.82-9.45h36.93c4.32,0,7.82,4.23,7.82,9.45v6.53C981.45,409.66,978,413.89,973.63,413.89Z" transform="translate(-219.84 -104.5)"/><path d="M1003.61,410.71c.21-2.95-9.54-.63-20.05,19.71-4.9,9.49-2.11-19.71-2.11-19.71Z" transform="translate(-219.84 -104.5)"/><path class="cls-6" d="M1003.61,410.71c.21-2.95-9.54-.63-20.05,19.71-4.9,9.49-2.11-19.71-2.11-19.71Z" transform="translate(-219.84 -104.5)"/></g></g></g></svg>