<svg xmlns="http://www.w3.org/2000/svg" xmlns:xlink="http://www.w3.org/1999/xlink" viewBox="0 0 874.61 440.92"><defs><style>.cls-1,.cls-5,.cls-7{fill:none;}.cls-2{fill:url(#linear-gradient);}.cls-3{font-size:245px;}.cls-3,.cls-4{font-family:BradleyHandITC, Bradley Hand ITC;}.cls-4{font-size:84px;}.cls-5,.cls-7{stroke:#000;stroke-miterlimit:10;}.cls-6{clip-path:url(#clip-path);}.cls-7{stroke-width:1.16px;}</style><linearGradient id="linear-gradient" x1="710" y1="16.74" x2="710" y2="457.87" gradientUnits="userSpaceOnUse"><stop offset="0" stop-color="#fff"/><stop offset="0" stop-color="#cecdcd"/><stop offset="0" stop-color="#cccbc2"/><stop offset="0.02" stop-color="#fff"/><stop offset="1" stop-color="#ff5b00"/></linearGradient><clipPath id="clip-path" transform="translate(-257.78 -104.5)"><rect class="cls-1" x="-39" y="47" width="1436.31" height="976.68"/></clipPath></defs><g id="Layer_1" data-name="Layer 1"><path class="cls-2" d="M710,403.5,295.5,402.19C296.5,238.66,483.3,104.5,710,104.5c227.39,0,414.5,135,414.5,299Z" transform="translate(-257.78 -104.5)"/><text class="cls-3" transform="translate(159.22 236.5)">C C R</text><text class="cls-4" transform="translate(63.22 371.5)">Carver’s Custom Rods</text><path class="cls-5" d="M295.5,402.19s-80.3,150-5,136.31c22.44-4.08,60.75-67.8,204-40,86.42,16.77,160.27,71.43,303,33,52.09-14,102.81-60.89,182-38,73,21.09,177,70,106-49" transform="translate(-257.78 -104.5)"/></g><g id="Layer_2" data-name="Layer 2"><g class="cls-6"><g class="cls-6"><path d="M294.06,405H930a1.1,1.1,0,0,0,1-1.19v-5.24c0-.66-.44-1.2-1-3.74l-634.1,8.9h-2.1c-2.1,0,0,1.27.27,1.27" transform="translate(-257.78 -104.5)"/><path class="cls-7" d="M294.06,405H930a1.1,1.1,0,0,0,1-1.19v-5.24c0-.66-.44-1.2-1-3.74l-634.1,8.9h-2.1C291.69,403.72,293.79,405,294.06,405Z" transform="translate(-257.78 -104.5)"/><rect x="719.46" y="287.14" width="38.9" height="19.08"/><rect class="cls-7" x="719.46" y="287.14" width="38.9" height="19.08"/><path d="M1124,417.71H1017.66c-4.32,0-7.82-4.24-7.82-9.46V395.37c0-5.22,3.5-9.46,7.82-9.46H1124c4.31,0,7.81,4.24,7.81,9.46v12.88c0,5.22-3.5,9.46-7.81,9.46" transform="translate(-257.78 -104.5)"/><path class="cls-7" d="M1124,417.71H1017.66c-4.32,0-7.82-4.24-7.82-9.46V395.37c0-5.22,3.5-9.46,7.82-9.46H1124c4.31,0,7.81,4.24,7.81,9.46v12.88C1131.81,413.47,1128.31,417.71,1124,417.71Z" transform="translate(-257.78 -104.5)"/><path d="M973.63,413.89H936.7c-4.32,0-7.82-4.23-7.82-9.45v-6.53c0-5.22,3.5-9.45,7.82-9.45h36.93c4.32,0,7.82,4.23,7.82,9.45v6.53c0,5.22-3.5,9.45-7.82,9.45" transform="translate(-257.78 -104.5)"/><path class="cls-7" d="M973.63,413.89H936.7c-4.32,0-7.82-4.23-7.82-9.45v-6.53c0-5.22,3.5-9.45,7.82-9.45h36.93c4.32,0,7.82,4.23,7.82,9.45v6.53C981.45,409.66,978,413.89,973.63,413.89Z" transform="translate(-257.78 -104.5)"/><path d="M1003.61,410.71c.21-2.95-9.54-.63-20.05,19.71-4.9,9.49-2.11-19.71-2.11-19.71Z" transform="translate(-257.78 -104.5)"/><path class="cls-7" d="M1003.61,410.71c.21-2.95-9.54-.63-20.05,19.71-4.9,9.49-2.11-19.71-2.11-19.71Z" transform="translate(-257.78 -104.5)"/></g></g></g></svg>